<?xml version="1.0" ?><svg height="48" id="svg6485" version="1.1" viewBox="0 0 48 48" width="48" xmlns="http://www.w3.org/2000/svg" xmlns:cc="http://creativecommons.org/ns#" xmlns:dc="http://purl.org/dc/elements/1.1/" xmlns:inkscape="http://www.inkscape.org/namespaces/inkscape" xmlns:rdf="http://www.w3.org/1999/02/22-rdf-syntax-ns#" xmlns:sodipodi="http://sodipodi.sourceforge.net/DTD/sodipodi-0.dtd" xmlns:svg="http://www.w3.org/2000/svg"><defs id="defs6487"/><g id="layer1" transform="translate(0,-1004.3622)"><text id="text4366" style="font-style:normal;font-weight:normal;font-size:11.25px;line-height:125%;font-family:Sans;letter-spacing:0px;word-spacing:0px;fill:#000000;fill-opacity:1;stroke:none;stroke-width:1px;stroke-linecap:butt;stroke-linejoin:miter;stroke-opacity:1" x="12" xml:space="preserve" y="1036.3622"><tspan id="tspan4368" x="12" y="1036.3622"/></text><g id="text4981" style="font-style:normal;font-variant:normal;font-weight:normal;font-stretch:normal;font-size:12.37186241px;line-height:125%;font-family:'Roboto Condensed';-inkscape-font-specification:'Roboto Condensed, ';letter-spacing:0px;word-spacing:0px;fill:#000000;fill-opacity:1;stroke:none;stroke-width:1px;stroke-linecap:butt;stroke-linejoin:miter;stroke-opacity:1" transform="scale(1.1477838,0.87124422)"/><g id="g6091"><g id="g5964" transform="translate(640.02794,259.17156)"><path d="m -616.02794,745.19064 c -13.25187,0 -24,10.74825 -24,24 0,13.2519 10.74813,24 24,24 13.25187,0 24,-10.7481 24,-24 0,-13.25175 -10.74813,-24 -24,-24 z m 0,1.5 c 12.42359,0 22.5,10.07655 22.5,22.5 0,12.4236 -10.07641,22.5 -22.5,22.5 -12.42359,0 -22.5,-10.0764 -22.5,-22.5 0,-12.42345 10.07641,-22.5 22.5,-22.5 z" id="path5827" style="color:#000000;font-style:normal;font-variant:normal;font-weight:normal;font-stretch:normal;font-size:medium;line-height:normal;font-family:sans-serif;text-indent:0;text-align:start;text-decoration:none;text-decoration-line:none;text-decoration-style:solid;text-decoration-color:#000000;letter-spacing:normal;word-spacing:normal;text-transform:none;direction:ltr;block-progression:tb;writing-mode:lr-tb;baseline-shift:baseline;text-anchor:start;white-space:normal;clip-rule:nonzero;display:inline;overflow:visible;visibility:visible;opacity:1;isolation:auto;mix-blend-mode:normal;color-interpolation:sRGB;color-interpolation-filters:linearRGB;solid-color:#000000;solid-opacity:1;fill:#9448f7;fill-opacity:1;fill-rule:nonzero;stroke:none;stroke-width:0.99999994;stroke-linecap:round;stroke-linejoin:round;stroke-miterlimit:4;stroke-dasharray:none;stroke-dashoffset:0;stroke-opacity:1;color-rendering:auto;image-rendering:auto;shape-rendering:auto;text-rendering:auto;enable-background:accumulate"/><path d="m -616.02794,749.44059 c -10.90519,0 -19.75,8.84505 -19.75,19.75005 0,10.90515 8.84481,19.75005 19.75,19.75005 10.90519,0 19.75,-8.8449 19.75,-19.75005 0,-10.905 -8.84481,-19.75005 -19.75,-19.75005 z" id="path5829" style="color:#000000;font-style:normal;font-variant:normal;font-weight:normal;font-stretch:normal;font-size:medium;line-height:normal;font-family:sans-serif;text-indent:0;text-align:start;text-decoration:none;text-decoration-line:none;text-decoration-style:solid;text-decoration-color:#000000;letter-spacing:normal;word-spacing:normal;text-transform:none;direction:ltr;block-progression:tb;writing-mode:lr-tb;baseline-shift:baseline;text-anchor:start;white-space:normal;clip-rule:nonzero;display:inline;overflow:visible;visibility:visible;opacity:1;isolation:auto;mix-blend-mode:normal;color-interpolation:sRGB;color-interpolation-filters:linearRGB;solid-color:#000000;solid-opacity:1;fill:#9448f7;fill-opacity:1;fill-rule:nonzero;stroke:none;stroke-width:0.99999994;stroke-linecap:round;stroke-linejoin:round;stroke-miterlimit:4;stroke-dasharray:none;stroke-dashoffset:0;stroke-opacity:1;color-rendering:auto;image-rendering:auto;shape-rendering:auto;text-rendering:auto;enable-background:accumulate"/><path d="m -616.02794,749.44059 c -10.90519,0 -19.75,8.84505 -19.75,19.75005 0,5.4579 2.21752,10.39755 5.798,13.9728 l 27.92477,-27.92475 c -3.57517,-3.5805 -8.51487,-5.7981 -13.97277,-5.7981 z" id="path5831" style="color:#000000;clip-rule:nonzero;display:inline;overflow:visible;visibility:visible;opacity:1;isolation:auto;mix-blend-mode:normal;color-interpolation:sRGB;color-interpolation-filters:linearRGB;solid-color:#000000;solid-opacity:1;fill:#763ece;fill-opacity:1;fill-rule:nonzero;stroke:none;stroke-width:1.5;stroke-linecap:butt;stroke-linejoin:miter;stroke-miterlimit:4;stroke-dasharray:none;stroke-dashoffset:0;stroke-opacity:1;color-rendering:auto;image-rendering:auto;shape-rendering:auto;text-rendering:auto;enable-background:accumulate"/></g><g id="g4850" transform="translate(-1.7005766,1.5975538)"><path d="m 34.898438,9.0019531 c -1.051162,0 -2.101354,0.3981657 -2.900391,1.1972659 -1.021359,1.0237 -1.329082,2.499865 -0.984375,3.884765 l -5.298828,5.300782 c -0.945627,0.9455 -2.444736,0.945 -3.388672,0 L 20.03125,17.087891 c -0.200225,-0.199783 -0.524384,-0.199783 -0.724609,0 L 9.1503906,27.242188 c -0.2010854,0.200448 -0.2010854,0.526114 0,0.726562 L 20.03125,38.849609 c 0.200225,0.199783 0.524384,0.199783 0.724609,0 l 10.154297,-10.15625 c 0.199783,-0.200225 0.199783,-0.524384 0,-0.724609 l -2.296875,-2.296875 c -0.943847,-0.9439 -0.943827,-2.442972 0.002,-3.388672 l 5.300782,-5.298828 c 1.384993,0.3449 2.860903,0.03928 3.884765,-0.982422 l 0.002,0 c 1.597679,-1.5977 1.596856,-4.202581 0,-5.800781 -0.04865,-0.04807 -0.106426,-0.08592 -0.169922,-0.111328 l -0.0059,0 C 36.849852,9.3903438 35.88195,9.0078125 34.898438,9.0078125 Z m 0,1.0136719 0,0.002 c 0.786481,0 1.574694,0.301297 2.177734,0.904297 l 0.002,0 c 1.202636,1.2063 1.203116,3.142756 -0.002,4.347656 -0.841374,0.8394 -2.087578,1.119903 -3.207031,0.720703 -0.186797,-0.06645 -0.395166,-0.0193 -0.535157,0.121094 l -5.443359,5.44336 c -1.33454,1.334599 -1.335033,3.50459 -0.002,4.83789 l 1.933594,1.933594 -1.453125,1.453125 -10.154297,-10.15625 1.453125,-1.449219 1.933593,1.931641 c 1.333135,1.3348 3.503308,1.3345 4.837891,0 l 5.443359,-5.445313 c 0.140398,-0.139991 0.187547,-0.348359 0.121094,-0.535156 -0.399168,-1.1195 -0.118714,-2.363678 0.720703,-3.205078 0.602856,-0.6021 1.387962,-0.904297 2.173829,-0.904297 z m 0,1.037109 c -0.526117,0 -1.050773,0.199257 -1.449219,0.597657 -0.796886,0.797 -0.796886,2.10359 0,2.90039 0.796892,0.797 2.103504,0.797 2.90039,0 0.796893,-0.7968 0.796893,-2.10339 0,-2.90039 -0.398442,-0.3984 -0.925055,-0.597657 -1.451171,-0.597657 z m 0,1.017578 c 0.261446,0 0.524121,0.102788 0.726562,0.304688 0.404892,0.4048 0.404892,1.046272 0,1.451172 -0.404884,0.4049 -1.046281,0.4049 -1.451172,0 -0.404884,-0.4049 -0.404884,-1.046372 0,-1.451172 0.202446,-0.2024 0.463162,-0.304688 0.72461,-0.304688 z m -17.408204,8.28125 10.154297,10.154297 -7.25,7.253907 -0.726562,-0.726563 5.154297,-5.150391 c 0.336249,-0.326206 0.09521,-0.895364 -0.373047,-0.880859 -0.133704,0.004 -0.260558,0.06006 -0.353516,0.15625 l -5.152344,5.150391 -1.451171,-1.451172 1.667968,-1.664063 c 0.336249,-0.326206 0.09521,-0.895364 -0.373047,-0.880859 -0.133704,0.004 -0.260557,0.06007 -0.353515,0.15625 l -1.666016,1.664062 -2.904297,-2.904296 c 0.0216,-0.01659 0.04185,-0.03488 0.06055,-0.05469 l 5.40625,-5.404297 c 0.337056,-0.326866 0.09423,-0.897247 -0.375,-0.880859 -0.133021,0.0045 -0.259084,0.06053 -0.351562,0.15625 l -5.404297,5.404297 c -0.01989,0.01932 -0.03818,0.04022 -0.05469,0.0625 l -0.736328,-0.738281 c 0.03111,-0.02026 0.05992,-0.04383 0.08594,-0.07031 l 3.21875,-3.21875 c 0.335459,-0.325546 0.09619,-0.893497 -0.371094,-0.880859 -0.133704,0.004 -0.260558,0.06006 -0.353516,0.15625 l -3.21875,3.21875 c -0.02648,0.02602 -0.05005,0.05483 -0.07031,0.08594 L 10.238286,27.60352 Z" id="rect5714" style="color:#000000;font-style:normal;font-variant:normal;font-weight:normal;font-stretch:normal;font-size:medium;line-height:normal;font-family:sans-serif;text-indent:0;text-align:start;text-decoration:none;text-decoration-line:none;text-decoration-style:solid;text-decoration-color:#000000;letter-spacing:normal;word-spacing:normal;text-transform:none;direction:ltr;block-progression:tb;writing-mode:lr-tb;baseline-shift:baseline;text-anchor:start;white-space:normal;clip-rule:nonzero;display:inline;overflow:visible;visibility:visible;opacity:1;isolation:auto;mix-blend-mode:normal;color-interpolation:sRGB;color-interpolation-filters:linearRGB;solid-color:#000000;solid-opacity:1;fill:#ffffff;fill-opacity:1;fill-rule:nonzero;stroke:none;stroke-width:0.99999994;stroke-linecap:butt;stroke-linejoin:round;stroke-miterlimit:4;stroke-dasharray:none;stroke-dashoffset:0;stroke-opacity:1;color-rendering:auto;image-rendering:auto;shape-rendering:auto;text-rendering:auto;enable-background:accumulate" transform="translate(0,1004.3622)"/></g></g></g></svg>