<?xml version="1.0"?>
<svg xmlns:rdf="http://www.w3.org/1999/02/22-rdf-syntax-ns#" xmlns="http://www.w3.org/2000/svg" xmlns:cc="http://creativecommons.org/ns#" xmlns:xlink="http://www.w3.org/1999/xlink" xmlns:dc="http://purl.org/dc/elements/1.1/" xmlns:svg="http://www.w3.org/2000/svg" id="svg50125" viewBox="0 0 200.92 172.86" version="1.1">
  <defs id="defs50127">
    <filter id="filter12348-3" color-interpolation-filters="sRGB">
      <feGaussianBlur id="feGaussianBlur12350-5" stdDeviation="0.15476746"/>
    </filter>
    <linearGradient id="linearGradient14926-9" y2="347.96" xlink:href="#linearGradient7059-0" gradientUnits="userSpaceOnUse" x2="469.38" y1="351.98" x1="469.84"/>
    <linearGradient id="linearGradient7059-0">
      <stop id="stop7061-1" stop-color="#d4a41c" offset="0"/>
      <stop id="stop7063-0" stop-color="#fdfdbf" offset=".61705"/>
      <stop id="stop7065-3" stop-color="#d4a018" offset=".78452"/>
      <stop id="stop7067-2" stop-color="#642800" offset="1"/>
    </linearGradient>
    <linearGradient id="linearGradient14928-1" y2="347.77" xlink:href="#linearGradient7059-0" gradientUnits="userSpaceOnUse" x2="469.37" y1="350.85" x1="471.03"/>
    <linearGradient id="linearGradient14930-8" y2="345.99" xlink:href="#linearGradient7009-7" gradientUnits="userSpaceOnUse" x2="470.89" y1="347.86" x1="472.1"/>
    <linearGradient id="linearGradient7009-7">
      <stop id="stop7011-9" stop-color="#6c3000" offset="0"/>
      <stop id="stop7013-5" stop-color="#cc9408" offset="1"/>
    </linearGradient>
    <linearGradient id="linearGradient14932-8" y2="346.66" xlink:href="#linearGradient7009-7" gradientUnits="userSpaceOnUse" x2="471.74" y1="348.4" x1="472.38"/>
    <linearGradient id="linearGradient14934-3" y2="347.71" xlink:href="#linearGradient6993-2" gradientUnits="userSpaceOnUse" x2="468.98" gradientTransform="translate(.091003 -.10920)" y1="348.29" x1="472.83"/>
    <linearGradient id="linearGradient6993-2">
      <stop id="stop6995-5" stop-color="#d4a41c" offset="0"/>
      <stop id="stop7005-1" stop-color="#fdfdbf" offset=".22633"/>
      <stop id="stop7001-5" stop-color="#d4a018" offset=".64963"/>
      <stop id="stop6997-4" stop-color="#642800" offset="1"/>
    </linearGradient>
    <linearGradient id="linearGradient14936-3" y2="345.25" xlink:href="#linearGradient7009-7" gradientUnits="userSpaceOnUse" x2="466.95" y1="346.4" x1="466.2"/>
    <linearGradient id="linearGradient14938-5" y2="347.75" gradientUnits="userSpaceOnUse" x2="468.16" y1="350.48" x1="466.95">
      <stop id="stop7047-8" stop-color="#d4a41c" offset="0"/>
      <stop id="stop7049-7" stop-color="#fdfdbf" offset=".48991"/>
      <stop id="stop7051-2" stop-color="#d4a018" offset=".71013"/>
      <stop id="stop7053-7" stop-color="#642800" offset="1"/>
    </linearGradient>
    <linearGradient id="linearGradient14940-8" y2="347.46" xlink:href="#linearGradient7059-0" gradientUnits="userSpaceOnUse" x2="467.71" y1="351.08" x1="465.1"/>
    <linearGradient id="linearGradient14942-8" y2="346" xlink:href="#linearGradient7009-7" gradientUnits="userSpaceOnUse" x2="466.59" y1="347.33" x1="465.97"/>
    <linearGradient id="linearGradient14944-3" y2="347.6" xlink:href="#linearGradient6993-2" gradientUnits="userSpaceOnUse" x2="468.5" gradientTransform="translate(-.018201 -.036401)" y1="346.86" x1="464.68"/>
    <linearGradient id="linearGradient14946-3" y2="348.03" gradientUnits="userSpaceOnUse" x2="468.62" y1="345.85" x1="469.03">
      <stop id="stop12180-5" stop-color="#d4a41c" offset="0"/>
      <stop id="stop12182-6" stop-color="#fdfdbf" offset=".38384"/>
      <stop id="stop12184-1" stop-color="#d4a018" offset=".56835"/>
      <stop id="stop12186-0" stop-color="#642800" offset="1"/>
    </linearGradient>
  </defs>
  <g id="layer1" transform="translate(-366.25 -306.91)">
    <g id="g12352" transform="matrix(20.734 -4.4259 4.4259 20.734 -10790 -4776.5)">

      <g id="g12325">
        <path id="path29061" fill="#c08400" d="m465.61 345.03c-0.0928 0.0974-0.22848 0.21383-0.24589 0.33178l0.26029 0.0697-0.014-0.38775"/>
        <path id="path29063" fill="#d0980c" d="m472.82 346.44c0.0549 0.12731 0.14622 0.28963 0.11567 0.40494l-0.29463-0.0426 0.17307-0.34993"/>
        <path id="path29065" d="m469.1 348.02c0.0155 0.0243 0.0373 0.0475 0.0427 0.0581 0.35673 0.69373-1.1092 3.0824 1.102 4.192-0.19457-0.25304-0.89249-1.0148-0.7283-1.528 0.22978 0.13553 0.36725 0.60569 1.0125 0.56705-1.604-0.94566-0.12405-3.2285-1.2683-3.4726-0.008-0.002-0.0789-0.0739-0.1262-0.0817" stroke="#d4a018" stroke-width=".028" fill="url(#linearGradient14926-9)"/>
        <path id="path29069" d="m469.35 348.25c0.87033 1.5477 0.71137 3.1229 2.6149 3.554-0.27654-0.15902-0.87074-0.50176-0.9159-1.0387 0.0271 0.11424 0.6384 0.32626 1.2195 0.0433-2.368-0.3117-1.8265-3.1619-2.977-2.9484" stroke="#d4a81c" stroke-width=".028" fill="url(#linearGradient14928-1)"/>
        <path id="path29079" d="m469.06 346.83c3.9879-2.5556 5.9751 1.2859 0.0321 0.2838" stroke="#d4a81c" stroke-width=".028" fill="url(#linearGradient14930-8)"/>
        <path id="path29091" d="m469 347.14c5.0952-2.0886 6.2223 2.1943-0.0429 0.30001" stroke="#d8b028" stroke-width=".028" fill="url(#linearGradient14932-8)"/>
        <path id="path29093" fill="url(#linearGradient14934-3)" d="m468.99 347.73c1.4888 0.69839 3.4374 2.5351 4.0417 1.0295-0.11796-0.59171 0.0835-1.044 0.3186-1.5461-0.60888 1.219-2.8618 0.14736-4.3959 0.12843"/>
        <path id="path29105" d="m468.77 346.79c-2.5654-3.7655-5.7568-1.0904-0.13441 0.24056" stroke="#d09c14" stroke-width=".028" fill="url(#linearGradient14936-3)"/>
        <path id="path29115" d="m468.33 347.75c-0.0278 0.0155-0.0639 0.0255-0.0731 0.0346-0.63455 0.62943-1.0126 5.6696-2.9489 4.0468 0.31064-0.0641 0.8529 0.0514 0.88894-0.4878-0.31691 0.0249-0.45567-0.14105-0.59124-0.31039 1.8347-0.63835 1.4868-3.6365 2.6037-3.543 0.0196 0.002 0.15022-0.007 0.17074-0.004" stroke="#e0c03c" stroke-width=".028" fill="url(#linearGradient14938-5)"/>
        <path id="path29121" d="m467.91 347.67c-0.0974-0.22428-0.29711 0.11645-0.38113 0.26911-0.26674 0.59485-1.4086 4.1123-3.8717 3.1213 0.21715-0.0652 1.0776 0.17382 1.4641-0.41156-0.4316 0.12613-0.81794-0.0792-0.90861-0.27624 2.1335-0.1605 2.5733-3.2591 3.633-2.8989 0.0186 0.006 0.18961 0.0234 0.20866 0.0318" stroke="#dcb028" stroke-width=".028" fill="url(#linearGradient14940-8)"/>
        <path id="path29129" d="m468.7 347.08c-3.7176-3.7642-6.3146-0.37465-0.0743 0.283" stroke="#e0bc34" stroke-width=".028" fill="url(#linearGradient14942-8)"/>
        <path id="path29131" d="m468.53 347.76c-1.5756 0.0647-3.9832 0.97027-3.9535-0.59554 0.32539-0.48243 0.31664-0.96024 0.29672-1.495 0.0815 1.3124 2.4714 1.2013 3.8332 1.7584" stroke="#d4a018" stroke-width=".028" fill="url(#linearGradient14944-3)"/>
        <path id="path29141" d="m468.31 347.42c0.0352-0.85957 0.28384-0.81238 0.57199-0.73405 0.28627 0.0777 0.40953 0.1226 0.346 0.74108-0.0493 0.62424-0.27178 0.71574-0.56484 0.67112-0.44565-0.0676-0.40514-0.0911-0.35314-0.67816z" stroke="#ecd858" stroke-width=".032052" fill="url(#linearGradient14946-3)"/>
      </g>
    </g>
  </g>
 
</svg>
