<svg width="761" height="320" viewBox="0 0 761 320" fill="none" xmlns="http://www.w3.org/2000/svg">
<rect width="761" height="320" rx="20" fill="#F3F1C6" fill-opacity="0.7"/>
<path d="M597.177 128.586C610.781 136.439 632.953 182.087 632.953 182.087C632.953 182.087 582.334 185.715 568.73 177.855C555.126 170.002 550.459 152.601 558.319 138.997C566.173 125.393 583.574 120.726 597.177 128.586Z" fill="#F3F1C6" fill-opacity="0.7"/>
<path d="M632.953 206.913C632.953 206.913 610.782 252.56 597.177 260.42C583.574 268.274 566.173 263.613 558.319 250.003C550.459 236.399 555.126 218.998 568.73 211.145C582.334 203.291 632.953 206.913 632.953 206.913Z" fill="#F3F1C6" fill-opacity="0.7"/>
<path d="M750.592 138.997C758.446 152.601 753.786 170.002 740.175 177.855C726.571 185.715 675.952 182.087 675.952 182.087C675.952 182.087 698.124 136.44 711.728 128.586C725.338 120.726 742.732 125.393 750.592 138.997Z" fill="#F3F1C6" fill-opacity="0.7"/>
<path d="M740.175 211.145C753.786 218.998 758.446 236.399 750.592 250.003C742.732 263.613 725.338 268.274 711.727 260.42C698.124 252.56 675.952 206.913 675.952 206.913C675.952 206.913 726.571 203.291 740.175 211.145Z" fill="#F3F1C6" fill-opacity="0.7"/>
<path d="M654.456 83.4905C670.163 83.4905 682.904 96.2315 682.904 111.938C682.904 127.652 654.456 169.678 654.456 169.678C654.456 169.678 626.008 127.652 626.008 111.938C626.008 96.2315 638.743 83.4905 654.456 83.4905Z" fill="#F3F1C6" fill-opacity="0.7"/>
<path d="M682.903 277.062C682.903 292.775 670.162 305.51 654.455 305.51C638.742 305.51 626.008 292.775 626.008 277.062C626.008 261.348 654.455 219.329 654.455 219.329C654.455 219.329 682.903 261.348 682.903 277.062Z" fill="#F3F1C6" fill-opacity="0.7"/>
<path d="M654.455 176.168C652.301 176.168 650.287 175.099 649.08 173.315C644.144 166.022 619.518 128.788 619.518 111.938C619.518 92.6729 635.19 77 654.455 77C673.72 77 689.393 92.6729 689.393 111.938C689.393 128.788 664.767 166.023 659.83 173.316C658.623 175.099 656.609 176.168 654.455 176.168ZM654.455 89.981C642.348 89.981 632.499 99.8308 632.499 111.938C632.499 120.358 644.389 141.896 654.454 157.809C664.52 141.891 676.412 120.35 676.412 111.938C676.412 99.8308 666.563 89.981 654.455 89.981Z" fill="#FFD28E" fill-opacity="0.7"/>
<path d="M607.739 189.478C592.061 189.478 573.848 188.308 565.483 183.475C557.404 178.811 551.623 171.277 549.206 162.262C546.79 153.246 548.03 143.83 552.7 135.75C557.364 127.67 564.897 121.889 573.912 119.473C582.93 117.056 592.344 118.297 600.425 122.966C615.014 131.391 634.944 171.33 638.791 179.251C639.732 181.189 639.65 183.467 638.574 185.332C637.497 187.198 635.565 188.407 633.417 188.561C629.669 188.829 619.404 189.478 607.739 189.478ZM582.99 131.254C581.083 131.254 579.164 131.504 577.271 132.011C571.606 133.529 566.872 137.163 563.94 142.241C561.006 147.321 560.226 153.237 561.744 158.902C563.262 164.566 566.896 169.301 571.975 172.234C579.265 176.445 603.861 176.914 622.674 176.155C613.922 159.479 601.214 138.411 593.931 134.208L593.93 134.206C590.548 132.252 586.794 131.254 582.99 131.254Z" fill="#FFD28E" fill-opacity="0.7"/>
<path d="M583.012 270.736C579.976 270.736 576.922 270.337 573.912 269.531C564.896 267.114 557.363 261.332 552.698 253.247C548.03 245.17 546.79 235.754 549.206 226.738C551.622 217.723 557.403 210.189 565.485 205.523H565.485C580.074 197.102 624.631 199.81 633.416 200.439C635.564 200.593 637.496 201.802 638.573 203.668C639.65 205.533 639.731 207.811 638.79 209.749C634.943 217.67 615.011 257.612 600.424 266.04C595.04 269.148 589.065 270.736 583.012 270.736ZM608.058 212.549C592.785 212.549 577.464 213.597 571.975 216.766C571.975 216.766 571.975 216.766 571.975 216.766C566.896 219.697 563.263 224.432 561.744 230.098C560.226 235.764 561.005 241.679 563.939 246.756C566.872 251.84 571.606 255.474 577.271 256.992C582.936 258.509 588.853 257.732 593.931 254.799C601.22 250.589 613.926 229.521 622.674 212.848C618.04 212.662 613.049 212.549 608.058 212.549Z" fill="#FFD28E" fill-opacity="0.7"/>
<path d="M654.455 312C635.19 312 619.518 296.327 619.518 277.062C619.518 260.212 644.143 222.983 649.08 215.69C650.287 213.907 652.301 212.838 654.455 212.838C656.609 212.838 658.623 213.907 659.829 215.69C664.766 222.982 689.393 260.212 689.393 277.062C689.393 296.327 673.72 312 654.455 312ZM654.455 231.198C644.389 247.113 632.499 268.651 632.499 277.063C632.499 289.17 642.348 299.02 654.455 299.02C666.562 299.02 676.412 289.17 676.412 277.063C676.412 268.651 664.521 247.113 654.455 231.198Z" fill="#FFD28E" fill-opacity="0.7"/>
<path d="M725.889 270.712C719.966 270.712 713.971 269.208 708.483 266.042C708.483 266.042 708.482 266.041 708.48 266.041C693.893 257.613 673.961 217.67 670.114 209.749C669.173 207.812 669.254 205.534 670.331 203.668C671.408 201.803 673.341 200.593 675.488 200.439C684.272 199.811 728.832 197.102 743.42 205.524C751.503 210.188 757.285 217.722 759.701 226.738C762.118 235.753 760.878 245.168 756.212 253.249C749.748 264.445 737.975 270.712 725.889 270.712ZM714.974 254.8C725.457 260.847 738.916 257.241 744.971 246.758C747.903 241.679 748.681 235.764 747.163 230.098C745.645 224.432 742.011 219.698 736.93 216.767C729.647 212.563 705.048 212.089 686.231 212.848C694.983 229.525 707.692 250.592 714.974 254.8Z" fill="#FFD28E" fill-opacity="0.7"/>
<path d="M701.169 189.478C689.5 189.478 679.237 188.829 675.488 188.561C673.339 188.407 671.408 187.197 670.331 185.332C669.254 183.466 669.173 181.188 670.114 179.251C673.961 171.329 693.894 131.386 708.482 122.964C713.976 119.792 720.21 118.174 726.531 118.282C730.115 118.345 732.97 121.3 732.907 124.884C732.846 128.43 729.952 131.262 726.421 131.262C726.382 131.262 726.344 131.262 726.306 131.262C722.331 131.196 718.428 132.212 714.973 134.206C707.69 138.41 694.982 159.478 686.231 176.152C705.051 176.914 729.648 176.442 736.928 172.235C746.331 166.809 750.382 155.137 746.353 145.083C745.019 141.755 746.637 137.977 749.964 136.644C753.292 135.313 757.07 136.927 758.403 140.254C764.819 156.264 758.376 174.846 743.419 183.477C735.058 188.308 716.845 189.478 701.169 189.478Z" fill="#FFD28E" fill-opacity="0.7"/>
<path d="M742.307 136.43C741.02 136.43 739.722 136.048 738.588 135.254C738.401 135.123 738.213 134.995 738.022 134.87C735.025 132.904 734.189 128.88 736.155 125.883C738.12 122.886 742.144 122.049 745.142 124.016C745.444 124.213 745.742 124.416 746.038 124.623C748.973 126.681 749.685 130.728 747.628 133.663C746.365 135.466 744.352 136.43 742.307 136.43Z" fill="#FFD28E" fill-opacity="0.7"/>
<path d="M322 193H608V194H322V193Z" fill="#FA6210"/>
<path d="M218.104 240.4V260H214.52V243.48H204.356V260H200.772V240.4H218.104ZM236.511 244.88C238.06 244.88 239.413 245.197 240.571 245.832C241.747 246.467 242.652 247.363 243.287 248.52C243.94 249.677 244.267 251.021 244.267 252.552C244.267 254.064 243.959 255.399 243.343 256.556C242.727 257.713 241.859 258.609 240.739 259.244C239.637 259.879 238.359 260.196 236.903 260.196C234.831 260.196 233.207 259.533 232.031 258.208V265.432H228.503V252.58C228.503 251.068 228.839 249.733 229.511 248.576C230.183 247.4 231.116 246.495 232.311 245.86C233.524 245.207 234.924 244.88 236.511 244.88ZM236.371 257.228C237.677 257.228 238.741 256.799 239.563 255.94C240.384 255.063 240.795 253.933 240.795 252.552C240.795 251.171 240.384 250.041 239.563 249.164C238.741 248.287 237.677 247.848 236.371 247.848C235.045 247.848 233.981 248.277 233.179 249.136C232.376 249.995 231.975 251.124 231.975 252.524C231.975 253.924 232.376 255.063 233.179 255.94C234 256.799 235.064 257.228 236.371 257.228ZM260.311 260.196C258.799 260.196 257.436 259.869 256.223 259.216C255.01 258.563 254.058 257.657 253.367 256.5C252.695 255.324 252.359 253.999 252.359 252.524C252.359 251.049 252.695 249.733 253.367 248.576C254.058 247.419 255.01 246.513 256.223 245.86C257.436 245.207 258.799 244.88 260.311 244.88C261.842 244.88 263.214 245.207 264.427 245.86C265.64 246.513 266.583 247.419 267.255 248.576C267.946 249.733 268.291 251.049 268.291 252.524C268.291 253.999 267.946 255.324 267.255 256.5C266.583 257.657 265.64 258.563 264.427 259.216C263.214 259.869 261.842 260.196 260.311 260.196ZM260.311 257.2C261.599 257.2 262.663 256.771 263.503 255.912C264.343 255.053 264.763 253.924 264.763 252.524C264.763 251.124 264.343 249.995 263.503 249.136C262.663 248.277 261.599 247.848 260.311 247.848C259.023 247.848 257.959 248.277 257.119 249.136C256.298 249.995 255.887 251.124 255.887 252.524C255.887 253.924 256.298 255.053 257.119 255.912C257.959 256.771 259.023 257.2 260.311 257.2ZM284.433 260.196C282.883 260.196 281.493 259.869 280.261 259.216C279.029 258.563 278.067 257.657 277.377 256.5C276.686 255.324 276.341 253.999 276.341 252.524C276.341 251.049 276.686 249.733 277.377 248.576C278.067 247.419 279.019 246.513 280.233 245.86C281.465 245.207 282.865 244.88 284.433 244.88C285.907 244.88 287.195 245.179 288.297 245.776C289.417 246.373 290.257 247.232 290.817 248.352L288.129 249.92C287.699 249.229 287.158 248.716 286.505 248.38C285.87 248.025 285.17 247.848 284.405 247.848C283.098 247.848 282.015 248.277 281.157 249.136C280.298 249.976 279.869 251.105 279.869 252.524C279.869 253.943 280.289 255.081 281.129 255.94C281.987 256.78 283.079 257.2 284.405 257.2C285.17 257.2 285.87 257.032 286.505 256.696C287.158 256.341 287.699 255.819 288.129 255.128L290.817 256.696C290.238 257.816 289.389 258.684 288.269 259.3C287.167 259.897 285.889 260.196 284.433 260.196ZM318.65 244.88C320.536 244.88 322.029 245.431 323.13 246.532C324.232 247.615 324.782 249.248 324.782 251.432V260H321.282V251.88C321.282 250.573 320.993 249.593 320.414 248.94C319.836 248.268 319.005 247.932 317.922 247.932C316.746 247.932 315.804 248.324 315.094 249.108C314.385 249.873 314.03 250.975 314.03 252.412V260H310.53V251.88C310.53 250.573 310.241 249.593 309.662 248.94C309.084 248.268 308.253 247.932 307.17 247.932C305.976 247.932 305.024 248.315 304.314 249.08C303.624 249.845 303.278 250.956 303.278 252.412V260H299.778V245.048H303.11V246.952C303.67 246.28 304.37 245.767 305.21 245.412C306.05 245.057 306.984 244.88 308.01 244.88C309.13 244.88 310.12 245.095 310.978 245.524C311.856 245.935 312.546 246.551 313.05 247.372C313.666 246.588 314.46 245.981 315.43 245.552C316.401 245.104 317.474 244.88 318.65 244.88ZM341.635 260.196C340.123 260.196 338.76 259.869 337.547 259.216C336.333 258.563 335.381 257.657 334.691 256.5C334.019 255.324 333.683 253.999 333.683 252.524C333.683 251.049 334.019 249.733 334.691 248.576C335.381 247.419 336.333 246.513 337.547 245.86C338.76 245.207 340.123 244.88 341.635 244.88C343.165 244.88 344.537 245.207 345.751 245.86C346.964 246.513 347.907 247.419 348.579 248.576C349.269 249.733 349.615 251.049 349.615 252.524C349.615 253.999 349.269 255.324 348.579 256.5C347.907 257.657 346.964 258.563 345.751 259.216C344.537 259.869 343.165 260.196 341.635 260.196ZM341.635 257.2C342.923 257.2 343.987 256.771 344.827 255.912C345.667 255.053 346.087 253.924 346.087 252.524C346.087 251.124 345.667 249.995 344.827 249.136C343.987 248.277 342.923 247.848 341.635 247.848C340.347 247.848 339.283 248.277 338.443 249.136C337.621 249.995 337.211 251.124 337.211 252.524C337.211 253.924 337.621 255.053 338.443 255.912C339.283 256.771 340.347 257.2 341.635 257.2ZM378.787 254.008H376.071V260H372.571V245.048H376.071V251.096H378.871L383.295 245.048H387.047L381.615 252.244L387.411 260H383.295L378.787 254.008ZM420.213 252.216C422.061 252.776 422.985 253.971 422.985 255.8C422.985 257.144 422.481 258.18 421.473 258.908C420.465 259.636 418.972 260 416.993 260H409.377V245.048H416.685C418.515 245.048 419.943 245.384 420.969 246.056C421.996 246.728 422.509 247.68 422.509 248.912C422.509 249.677 422.304 250.34 421.893 250.9C421.501 251.46 420.941 251.899 420.213 252.216ZM412.709 251.292H416.377C418.188 251.292 419.093 250.667 419.093 249.416C419.093 248.203 418.188 247.596 416.377 247.596H412.709V251.292ZM416.713 257.452C418.636 257.452 419.597 256.827 419.597 255.576C419.597 254.923 419.373 254.437 418.925 254.12C418.477 253.784 417.777 253.616 416.825 253.616H412.709V257.452H416.713ZM439.649 257.228C441.273 257.228 442.627 256.687 443.709 255.604L445.557 257.76C444.904 258.563 444.064 259.169 443.037 259.58C442.011 259.991 440.853 260.196 439.565 260.196C437.923 260.196 436.476 259.869 435.225 259.216C433.975 258.563 433.004 257.657 432.313 256.5C431.641 255.324 431.305 253.999 431.305 252.524C431.305 251.068 431.632 249.761 432.285 248.604C432.957 247.428 433.872 246.513 435.029 245.86C436.205 245.207 437.531 244.88 439.005 244.88C440.405 244.88 441.675 245.188 442.813 245.804C443.971 246.401 444.885 247.269 445.557 248.408C446.229 249.528 446.565 250.844 446.565 252.356L435.113 254.596C435.468 255.455 436.037 256.108 436.821 256.556C437.605 257.004 438.548 257.228 439.649 257.228ZM439.005 247.68C437.717 247.68 436.672 248.1 435.869 248.94C435.085 249.78 434.693 250.909 434.693 252.328V252.356L443.149 250.732C442.907 249.817 442.412 249.08 441.665 248.52C440.937 247.96 440.051 247.68 439.005 247.68ZM463.256 244.88C464.805 244.88 466.159 245.197 467.316 245.832C468.492 246.467 469.397 247.363 470.032 248.52C470.685 249.677 471.012 251.021 471.012 252.552C471.012 254.064 470.704 255.399 470.088 256.556C469.472 257.713 468.604 258.609 467.484 259.244C466.383 259.879 465.104 260.196 463.648 260.196C461.576 260.196 459.952 259.533 458.776 258.208V265.432H455.248V252.58C455.248 251.068 455.584 249.733 456.256 248.576C456.928 247.4 457.861 246.495 459.056 245.86C460.269 245.207 461.669 244.88 463.256 244.88ZM463.116 257.228C464.423 257.228 465.487 256.799 466.308 255.94C467.129 255.063 467.54 253.933 467.54 252.552C467.54 251.171 467.129 250.041 466.308 249.164C465.487 248.287 464.423 247.848 463.116 247.848C461.791 247.848 460.727 248.277 459.924 249.136C459.121 249.995 458.72 251.124 458.72 252.524C458.72 253.924 459.121 255.063 459.924 255.94C460.745 256.799 461.809 257.228 463.116 257.228ZM502.428 245.048V260H480.392V245.048H483.892V257.032H489.688V245.048H493.188V257.032H498.928V245.048H502.428ZM527.183 245.048V260H523.851V258.096C523.291 258.768 522.591 259.291 521.751 259.664C520.929 260.019 520.033 260.196 519.063 260.196C517.065 260.196 515.488 259.645 514.331 258.544C513.173 257.424 512.595 255.772 512.595 253.588V245.048H516.095V253.112C516.095 254.456 516.393 255.464 516.991 256.136C517.607 256.789 518.484 257.116 519.623 257.116C520.855 257.116 521.835 256.733 522.563 255.968C523.309 255.184 523.683 254.064 523.683 252.608V245.048H527.183ZM537.789 245.048H541.289V251.124H548.821V245.048H552.321V260H548.821V254.092H541.289V260H537.789V245.048ZM577.452 245.048V260H574.12V258.068C573.541 258.777 572.823 259.309 571.964 259.664C571.124 260.019 570.191 260.196 569.164 260.196C567.708 260.196 566.401 259.879 565.244 259.244C564.105 258.609 563.209 257.713 562.556 256.556C561.921 255.399 561.604 254.055 561.604 252.524C561.604 250.993 561.921 249.659 562.556 248.52C563.209 247.363 564.105 246.467 565.244 245.832C566.401 245.197 567.708 244.88 569.164 244.88C570.135 244.88 571.021 245.048 571.824 245.384C572.645 245.72 573.355 246.215 573.952 246.868V245.048H577.452ZM569.556 257.2C570.844 257.2 571.908 256.771 572.748 255.912C573.588 255.053 574.008 253.924 574.008 252.524C574.008 251.124 573.588 249.995 572.748 249.136C571.908 248.277 570.844 247.848 569.556 247.848C568.268 247.848 567.204 248.277 566.364 249.136C565.543 249.995 565.132 251.124 565.132 252.524C565.132 253.924 565.543 255.053 566.364 255.912C567.204 256.771 568.268 257.2 569.556 257.2ZM602.667 260V250.088L597.627 258.432H596.115L591.159 250.06V260H587.967V245.048H591.635L596.955 254.4L602.527 245.048H605.803L605.831 260H602.667Z" fill="#7E482D"/>
<g filter="url(#filter0_d_203_39)">
<path fill-rule="evenodd" clip-rule="evenodd" d="M31.77 42.861L28 46.722L38.183 51.952C43.784 54.829 50.919 59.108 54.04 61.461C63.942 68.928 63.213 63.364 63.213 131.422C63.213 184.285 63.028 191.506 61.599 194.518C60.711 196.388 59.558 197.919 59.036 197.919C58.514 197.919 58.227 199.381 58.4 201.169L58.713 204.419L81.312 204.687L103.91 204.956L126.812 178.24C156.787 143.272 153.643 147.652 151.602 143.705C147.263 135.314 139.064 128.359 129.938 125.328L124.852 123.638L129.282 121.382C131.719 120.14 135.753 117.326 138.247 115.127C152.534 102.53 153.882 78.983 140.983 67.33C131.947 59.167 121.224 56.87 93.46 57.151C73.959 57.349 73.62 57.316 66.213 54.509C58.353 51.53 46.558 45.763 39.626 41.508L35.539 39L31.77 42.861ZM584.317 55.589C582.913 58.672 583.059 58.869 587.504 59.872C591.07 60.676 596.884 59.267 599.722 56.911C602.409 54.681 601.301 54.101 595.379 54.638C592.027 54.942 588.683 54.706 587.521 54.084C585.797 53.161 585.322 53.385 584.317 55.589ZM168.213 60.114C168.213 62.238 169.135 64.272 170.963 66.178L173.713 69.046L174.213 96.483L174.713 123.92L186.463 110.693L198.213 97.466V86.693V75.919H213.713H229.213V129.969C229.213 176.461 229 184.431 227.687 186.969C226.848 188.591 225.754 189.919 225.255 189.919C223.926 189.919 222.979 193.605 223.713 195.919C224.289 197.735 225.226 197.919 233.902 197.919C246.282 197.919 262.135 200.305 272.761 203.769L281.206 206.521L284.391 203.235C286.143 201.428 287.382 199.757 287.145 199.522C286.907 199.288 281.988 197.293 276.213 195.089C270.438 192.885 264.909 190.766 263.926 190.379C259.29 188.556 259.213 187.52 259.219 127.719C259.225 78.604 259.425 71.036 260.789 68.42C261.649 66.77 262.997 65.06 263.783 64.62C264.592 64.167 265.213 62.321 265.213 60.369V56.919H216.713H168.213V60.114ZM324.713 79.796V96.919H332.443C342.459 96.919 347.931 94.839 349.822 90.312C351.58 86.106 350.351 82.581 346.258 80.093L343.253 78.265L346.289 76.021C348.858 74.121 349.278 73.212 349.019 70.105C348.61 65.2 345.446 63.757 333.764 63.146L324.713 62.673V79.796ZM364.713 79.918V96.917L375.854 96.918L386.994 96.919L387.462 93.169C387.719 91.107 387.803 89.267 387.65 89.081C387.496 88.895 386.097 89.64 384.542 90.737C382.986 91.834 380.026 93.02 377.963 93.371L374.213 94.01V87.334V80.659L378.713 81.166C382.927 81.641 383.213 81.522 383.213 79.296C383.213 77.145 382.784 76.919 378.713 76.919H374.213V71.919C374.213 66.944 374.229 66.919 377.463 66.923C379.251 66.925 382.175 67.818 383.963 68.908L387.213 70.89V66.904V62.919L375.963 62.918H364.713V79.918ZM408.607 64.828C398.875 69.247 397.01 87.894 405.621 94.668C408.823 97.187 414.818 98.331 420.121 97.435C425.155 96.584 426.826 95.178 427.564 91.169C428.292 87.22 426.8 86.903 424.034 90.419C421.327 93.86 415.12 93.917 411.734 90.531C407.205 86.001 407.193 74.391 411.712 69.514C415.054 65.909 420.294 65.935 423.154 69.572C425.539 72.603 425.957 72.45 426.801 68.228C427.352 65.476 427.098 65.074 424.162 64.051C419.416 62.396 413.287 62.702 408.607 64.828ZM440.713 79.918V96.917L451.858 96.918L463.003 96.919L463.384 92.919C463.594 90.719 463.623 88.919 463.449 88.919C463.275 88.919 461.913 89.777 460.423 90.826C458.932 91.874 456.026 93.02 453.963 93.371L450.213 94.01V87.334V80.659L454.713 81.166C458.927 81.641 459.213 81.522 459.213 79.296C459.213 77.145 458.784 76.919 454.713 76.919H450.213V71.919C450.213 66.944 450.229 66.919 453.463 66.923C455.251 66.925 458.175 67.818 459.963 68.908L463.213 70.89V66.904V62.919L451.963 62.918H440.713V79.918ZM480.213 63.86C480.213 64.378 480.727 65.118 481.354 65.506C482.987 66.515 481.702 84.072 479.714 87.917C478.83 89.627 477.358 90.919 476.294 90.919C474.447 90.919 473.213 92.754 473.213 95.501C473.213 97.923 479.54 97.264 482.063 94.579C484.946 91.51 486.023 87.488 486.833 76.759L487.5 67.919H491.412H495.324L495.003 80.669C494.826 87.682 494.303 94.207 493.84 95.169C493.093 96.723 493.6 96.919 498.356 96.918L503.713 96.917V79.918V62.918H491.963C485.288 62.919 480.213 63.325 480.213 63.86ZM521.053 78.457C521.298 89.605 521.051 94.409 520.181 95.458C519.133 96.72 520.144 96.919 527.623 96.919C541.234 96.919 547.222 93.11 545.771 85.376C544.952 81.011 541.03 78.357 533.964 77.385L529 76.702L529.389 69.81L529.778 62.919L525.246 62.918L520.713 62.917L521.053 78.457ZM549.713 79.918V96.918H554.213L558.713 96.919V79.919V62.919H554.213L549.713 62.918V79.918ZM575.713 79.964V97.01L579.713 96.714C583.643 96.424 583.82 96.239 589.85 86.116C593.225 80.449 596.303 75.499 596.691 75.116C597.078 74.733 597.242 79.482 597.054 85.67L596.713 96.921L601.498 96.92C606.051 96.919 606.229 96.817 605.159 94.817C604.422 93.441 604.151 87.571 604.373 77.816L604.713 62.917L601.213 62.927C597.787 62.936 597.565 63.196 590.713 75.178L583.713 87.419L583.423 78.002C583.264 72.823 583.578 67.311 584.121 65.752L585.109 62.919H580.411H575.713V79.964ZM339.631 67.526C343.458 68.995 340.475 76.269 335.713 77.079C333.953 77.378 333.677 76.788 333.411 72.169C333.123 67.171 333.227 66.919 335.579 66.919C336.938 66.919 338.761 67.192 339.631 67.526ZM112.066 70.343C119.494 74.184 122.727 81.582 121.948 92.955C120.815 109.479 111.623 119.78 96.402 121.583L91.213 122.198L91.228 97.308C91.237 83.619 91.574 71.931 91.978 71.334C94.484 67.631 105.748 67.076 112.066 70.343ZM339.633 83.035C343.206 85.845 342.922 90.681 339.058 92.839C335.028 95.091 333.213 93.059 333.213 86.297C333.213 81.715 333.489 80.919 335.078 80.919C336.104 80.919 338.154 81.871 339.633 83.035ZM535.269 82.763C539.818 86.447 537.208 94.493 531.72 93.707C529.994 93.459 529.671 92.545 529.415 87.169C529.148 81.551 529.313 80.919 531.054 80.919C532.12 80.919 534.016 81.749 535.269 82.763ZM159.972 152.669C94.972 227.097 94.067 228.159 92.54 231.742C89.907 237.924 93.182 242.919 99.868 242.919C105.434 242.919 108.466 240.2 108.022 235.61C107.764 232.946 107.249 232.366 104.903 232.097C103.357 231.92 101.433 232.321 100.628 232.989C98.267 234.949 97.808 233.247 99.838 230.066C100.869 228.451 106.213 221.952 111.713 215.624L121.713 204.119L121.995 215.519C122.386 231.368 124.213 230.25 124.213 214.162V201.404L129.713 195.098L135.213 188.791V200.355C135.213 207.398 135.604 211.919 136.213 211.919C136.827 211.919 137.213 207.055 137.213 199.328V186.738L141.834 181.328C144.376 178.353 146.851 175.919 147.334 175.919C147.818 175.919 148.213 180.869 148.213 186.919C148.213 193.586 148.607 197.919 149.213 197.919C149.827 197.919 150.228 192.81 150.251 184.669L150.289 171.419L155.251 166.099L160.213 160.779V171.849C160.213 178.562 160.607 182.919 161.213 182.919C161.825 182.919 162.213 178.152 162.213 170.619V158.32L185.2 132.434C206.923 107.97 208.097 106.448 206.545 104.733C205.642 103.735 204.569 102.919 204.161 102.919C203.753 102.919 183.868 125.307 159.972 152.669ZM412.713 120.422C407.889 122.129 404.667 125.624 403.265 130.671C401.087 138.514 402.577 145.977 407.206 150.412C409.654 152.758 411.303 153.37 416.106 153.718C424.436 154.32 428.808 152.693 429.608 148.693C430.438 144.543 428.932 143.172 426.919 146.245C423.781 151.035 414.891 150.429 412.118 145.236C410.076 141.413 410.322 130.928 412.532 127.554C416.04 122.202 422.951 121.602 425.609 126.419C426.216 127.519 426.85 128.631 427.017 128.89C427.651 129.87 429.183 126.312 429.198 123.827C429.21 121.68 428.55 121.037 425.347 120.077C420.397 118.594 417.669 118.669 412.713 120.422ZM328.37 122.939C329.756 126.915 328.034 142.017 325.807 145.417C324.905 146.793 323.277 147.919 322.19 147.919C320.741 147.919 320.213 148.596 320.213 150.45C320.213 153.774 322.61 154.577 326.702 152.626C330.84 150.652 332.783 145.135 333.729 132.669L334.393 123.919H337.875H341.357L341.035 138.92L340.713 153.922L346.07 153.92C350.826 153.919 351.332 153.723 350.584 152.169C349.26 149.42 348.936 124.305 350.195 121.954C351.261 119.96 351.041 119.919 339.3 119.919H327.317L328.37 122.939ZM367.267 122.021C368.004 123.397 368.275 129.267 368.053 139.022L367.713 153.921L378.352 153.92L388.99 153.919L389.666 150.317C390.038 148.336 390.136 146.509 389.885 146.257C389.633 146.006 387.698 146.727 385.585 147.86C383.472 148.992 380.498 149.919 378.978 149.919C376.265 149.919 376.213 149.806 376.213 143.919V137.919H381.213C385.796 137.919 386.213 137.723 386.213 135.566C386.213 133.345 385.933 133.24 381.213 133.693L376.213 134.173V128.458V122.743L380.463 123.437C382.8 123.818 385.646 124.987 386.787 126.034C389.392 128.424 389.926 127.897 389.406 123.45L388.994 119.919H377.568C366.268 119.919 366.155 119.942 367.267 122.021ZM438.875 123.616C438.545 125.65 438.462 127.501 438.691 127.73C438.92 127.96 440.317 127.196 441.795 126.033C443.273 124.87 445.571 123.919 446.902 123.919H449.321L449.003 137.169C448.828 144.456 448.306 151.206 447.842 152.169C447.094 153.723 447.6 153.919 452.356 153.92L457.713 153.922L457.391 138.92C457.084 124.637 457.162 123.919 459.006 123.919C460.072 123.919 462.087 124.819 463.486 125.919C466.953 128.646 467.213 128.507 467.213 123.919V119.919H453.344H439.475L438.875 123.616ZM479.713 136.919V153.919H484.298H488.882L488.419 145.919L487.956 137.919H494.19H500.425L500.061 145.919L499.698 153.919H504.206H508.713V136.919V119.919H503.263C499.024 119.919 498.08 120.186 499.013 121.119C499.673 121.779 500.213 124.704 500.213 127.619V132.919H494.097H487.98L488.394 126.419L488.808 119.919H484.26H479.713V136.919ZM525.713 136.919V153.919H529.449C533.582 153.919 533.702 153.78 542.349 138.919C546.457 131.859 546.733 131.595 547.054 134.419C547.242 136.069 547.242 141.132 547.054 145.669L546.713 153.919H551.57C555.85 153.919 556.327 153.711 555.584 152.169C554.26 149.42 553.936 124.305 555.195 121.954C556.212 120.052 555.998 119.919 551.927 119.919H547.571L542.692 128.669C540.008 133.482 536.987 138.769 535.979 140.419L534.146 143.419L534.429 131.667L534.713 119.915L530.213 119.917L525.713 119.919V136.919ZM569.339 128.054C570.279 138.998 571.662 140.421 581.342 140.413L588.411 140.406L588.029 147.163L587.648 153.919H592.18L596.713 153.92V136.92V119.92H592.206L587.698 119.919L588.055 127.786C588.405 135.494 588.362 135.665 585.882 136.287C582.749 137.074 578.698 135.625 577.849 133.414C576.77 130.601 577.146 122.386 578.413 121.119C579.346 120.186 578.394 119.919 574.126 119.919H568.64L569.339 128.054ZM613.713 136.92V153.92H619.07C623.811 153.919 624.335 153.718 623.625 152.169C623.184 151.206 622.648 147.607 622.433 144.169L622.042 137.919H628.234H634.425L634.061 145.919L633.698 153.919H638.956C643.836 153.919 645.591 152.889 643.213 151.419C641.717 150.495 641.901 122.631 643.413 121.119C644.346 120.186 643.391 119.919 639.116 119.919H633.618L634.032 126.419L634.446 132.919H628.329H622.213V128.353C622.213 125.842 622.679 122.917 623.248 121.853C624.211 120.054 623.914 119.919 618.998 119.92L613.713 119.921V136.92ZM659.713 136.92V153.92H663.308C667.704 153.919 668.479 153.082 675.348 140.919C681.451 130.112 681.69 130.312 681.054 145.669L680.713 153.919L685.213 153.92H689.713V136.92V119.921L685.713 119.932L681.713 119.944L675.213 131.681C667.869 144.942 667.742 144.886 668.373 128.671L668.713 119.918L664.213 119.919L659.713 119.921V136.92ZM706.162 121.357C707.006 122.375 707.262 127.348 707.034 138.359L706.713 153.922L711.22 153.92L715.728 153.919L715.386 145.669L715.044 137.419L720.794 145.669L726.545 153.919H731.379C736.687 153.919 737.263 153.179 734.152 150.363C731.683 148.129 722.213 135.489 722.213 134.428C722.213 133.346 731.573 121.927 732.463 121.923C732.876 121.921 733.213 121.469 733.213 120.919C733.213 120.369 731.751 119.922 729.963 119.926C727.43 119.931 726.217 120.648 724.467 123.176C723.232 124.96 720.625 128.219 718.675 130.419L715.128 134.419L715.453 127.169L715.778 119.919H710.373C705.785 119.919 705.149 120.136 706.162 121.357ZM185.463 142.956L173.213 157.722V171.773V185.824L166.963 186.121L160.713 186.419L160.419 193.669L160.125 200.919H154.213H148.301L148.007 208.169L147.713 215.419L141.463 215.717L135.213 216.014V222.967V229.919H128.713H122.213V237.441C122.213 244.87 122.162 245.019 118.071 249.457C115.793 251.928 112.193 254.926 110.071 256.119L106.213 258.287V265.671C106.213 272.861 106.272 273.036 108.463 272.376C117.058 269.786 135.612 257.202 147.68 245.779C176.295 218.692 192.276 184.258 197.207 139.064C197.828 133.369 198.196 128.592 198.025 128.449C197.853 128.306 192.201 134.834 185.463 142.956ZM105.511 133.929C127.203 140.629 133.222 165.936 117.245 183.268C110.688 190.382 103.253 192.717 96.685 189.724C91.583 187.4 91.213 185.217 91.213 157.469V131.919H95.108C97.25 131.919 101.931 132.824 105.511 133.929Z" fill="#89583F"/>
</g>
<defs>
<filter id="filter0_d_203_39" x="23" y="39" width="718.049" height="243.625" filterUnits="userSpaceOnUse" color-interpolation-filters="sRGB">
<feFlood flood-opacity="0" result="BackgroundImageFix"/>
<feColorMatrix in="SourceAlpha" type="matrix" values="0 0 0 0 0 0 0 0 0 0 0 0 0 0 0 0 0 0 127 0" result="hardAlpha"/>
<feOffset dy="5"/>
<feGaussianBlur stdDeviation="2.5"/>
<feComposite in2="hardAlpha" operator="out"/>
<feColorMatrix type="matrix" values="0 0 0 0 1 0 0 0 0 1 0 0 0 0 1 0 0 0 0.25 0"/>
<feBlend mode="normal" in2="BackgroundImageFix" result="effect1_dropShadow_203_39"/>
<feBlend mode="normal" in="SourceGraphic" in2="effect1_dropShadow_203_39" result="shape"/>
</filter>
</defs>
</svg>
