<svg width="158" height="60" viewBox="0 0 158 60" fill="none" xmlns="http://www.w3.org/2000/svg">
<path d="M66 36H153V34H66V36Z" fill="#ADC178"/>
<g filter="url(#filter0_d_205_2)">
<path fill-rule="evenodd" clip-rule="evenodd" d="M5.78803 0.826326L5 1.65265L7.1285 2.77197C8.29925 3.3877 9.79065 4.30349 10.443 4.80707C12.5128 6.40515 12.3604 5.21435 12.3604 19.78C12.3604 31.0937 12.3217 32.6391 12.023 33.2837C11.8374 33.684 11.5964 34.0116 11.4873 34.0116C11.3782 34.0116 11.3182 34.3245 11.3544 34.7072L11.4198 35.4027L16.1436 35.4601L20.8671 35.5177L25.6542 29.7999C31.9197 22.3161 31.2626 23.2535 30.8359 22.4088C29.929 20.613 28.2152 19.1245 26.3076 18.4758L25.2445 18.1141L26.1705 17.6313C26.6799 17.3655 27.5231 16.7632 28.0444 16.2926C31.0307 13.5966 31.3125 8.5571 28.6163 6.06315C26.7275 4.31611 24.4862 3.82451 18.6828 3.88465C14.6066 3.92703 14.5357 3.91996 12.9875 3.31921C11.3445 2.68165 8.87909 1.44741 7.43013 0.536759L6.57584 0L5.78803 0.826326ZM121.284 3.55035C120.991 4.21017 121.021 4.25234 121.95 4.467C122.696 4.63907 123.911 4.33751 124.504 3.83329C125.066 3.35603 124.834 3.23189 123.597 3.34682C122.896 3.41188 122.197 3.36138 121.954 3.22826C121.594 3.03072 121.494 3.07866 121.284 3.55035ZM34.3081 4.51879C34.3081 4.97336 34.5008 5.40868 34.8829 5.8166L35.4577 6.4304L35.5622 12.3024L35.6667 18.1745L38.1228 15.3436L40.5788 12.5128V10.2072V7.90135H43.8187H47.0586V19.4691C47.0586 29.4192 47.0141 31.1249 46.7396 31.6681C46.5642 32.0153 46.3356 32.2995 46.2313 32.2995C45.9535 32.2995 45.7555 33.0883 45.9089 33.5836C46.0293 33.9722 46.2252 34.0116 48.0387 34.0116C50.6264 34.0116 53.9401 34.5223 56.1612 35.2636L57.9264 35.8526L58.5922 35.1493C58.9584 34.7626 59.2174 34.405 59.1678 34.3547C59.1181 34.3046 58.0899 33.8776 56.8828 33.4059C55.6757 32.9343 54.52 32.4807 54.3145 32.3979C53.3454 32.0078 53.3293 31.786 53.3306 18.9875C53.3319 8.47599 53.3737 6.8563 53.6588 6.29643C53.8385 5.9433 54.1203 5.57732 54.2846 5.48316C54.4537 5.38621 54.5835 4.99113 54.5835 4.57336V3.835H44.4458H34.3081V4.51879ZM67.0205 8.7311V12.3957H68.6363C70.7299 12.3957 71.8736 11.9506 72.2689 10.9817C72.6364 10.0816 72.3795 9.32714 71.5239 8.79467L70.8958 8.40344L71.5304 7.92318C72.0674 7.51655 72.1552 7.322 72.1011 6.65705C72.0156 5.60729 71.3542 5.29846 68.9124 5.16769L67.0205 5.06646V8.7311ZM75.3815 8.75721V12.3953L77.7103 12.3955L80.0388 12.3957L80.1366 11.5932C80.1903 11.1519 80.2079 10.7581 80.1759 10.7183C80.1437 10.6785 79.8513 10.8379 79.5263 11.0727C79.201 11.3075 78.5823 11.5613 78.1511 11.6364L77.3672 11.7732V10.3444V8.9158L78.3079 9.02431C79.1887 9.12597 79.2485 9.1005 79.2485 8.62409C79.2485 8.16374 79.1588 8.11537 78.3079 8.11537H77.3672V7.04528C77.3672 5.98054 77.3706 5.97518 78.0466 5.97604C78.4203 5.97647 79.0315 6.16759 79.4052 6.40087L80.0846 6.82505V5.97197V5.11911L77.733 5.1189H75.3815V8.75721ZM84.5565 5.52767C82.5222 6.47342 82.1324 10.4642 83.9323 11.914C84.6016 12.4531 85.8547 12.6979 86.9632 12.5062C88.0154 12.324 88.3647 12.0231 88.519 11.1651C88.6711 10.32 88.3593 10.2521 87.7811 11.0046C87.2153 11.7411 85.9178 11.7533 85.2101 11.0286C84.2634 10.0591 84.2609 7.57433 85.2055 6.53056C85.904 5.75903 86.9993 5.76459 87.5972 6.54298C88.0957 7.19167 88.183 7.15892 88.3595 6.25534C88.4746 5.66636 88.4215 5.58032 87.8078 5.36138C86.8158 5.00718 85.5347 5.07267 84.5565 5.52767ZM91.2674 8.75721V12.3953L93.597 12.3955L95.9266 12.3957L96.0062 11.5397C96.0501 11.0688 96.0562 10.6836 96.0198 10.6836C95.9834 10.6836 95.6988 10.8672 95.3873 11.0917C95.0757 11.316 94.4682 11.5613 94.037 11.6364L93.2532 11.7732V10.3444V8.9158L94.1938 9.02431C95.0746 9.12597 95.1344 9.1005 95.1344 8.62409C95.1344 8.16374 95.0447 8.11537 94.1938 8.11537H93.2532V7.04528C93.2532 5.98054 93.2565 5.97518 93.9325 5.97604C94.3062 5.97647 94.9174 6.16759 95.2912 6.40087L95.9705 6.82505V5.97197V5.11911L93.619 5.1189H91.2674V8.75721ZM99.5239 5.3205C99.5239 5.43136 99.6314 5.58974 99.7624 5.67278C100.104 5.88872 99.8352 9.64625 99.4196 10.4691C99.2348 10.8351 98.9271 11.1116 98.7047 11.1116C98.3187 11.1116 98.0607 11.5044 98.0607 12.0923C98.0607 12.6106 99.3832 12.4696 99.9106 11.8949C100.513 11.2381 100.738 10.3773 100.908 8.08113L101.047 6.1892H101.865H102.682L102.615 8.91794C102.578 10.4189 102.469 11.8153 102.372 12.0212C102.216 12.3538 102.322 12.3957 103.316 12.3955L104.436 12.3953V8.75721V5.1189H101.98C100.585 5.11911 99.5239 5.206 99.5239 5.3205ZM108.061 8.44453C108.112 10.8304 108.06 11.8586 107.878 12.0831C107.659 12.3532 107.871 12.3957 109.434 12.3957C112.279 12.3957 113.53 11.5805 113.227 9.92533C113.056 8.99113 112.236 8.42313 110.759 8.2151L109.722 8.06893L109.803 6.59391L109.884 5.11911L108.937 5.1189L107.989 5.11868L108.061 8.44453ZM114.051 8.75721V12.3955H114.992L115.932 12.3957V8.75743V5.11911H114.992L114.051 5.1189V8.75721ZM119.486 8.76706V12.4152L120.322 12.3519C121.143 12.2898 121.18 12.2502 122.441 10.0837C123.146 8.87086 123.79 7.81146 123.871 7.72949C123.952 7.64753 123.986 8.6639 123.947 9.98825L123.875 12.3962L124.876 12.396C125.827 12.3957 125.864 12.3739 125.641 11.9459C125.487 11.6514 125.43 10.3951 125.476 8.30734L125.548 5.11868L124.816 5.12082C124.1 5.12275 124.053 5.17839 122.621 7.74276L121.158 10.3626L121.097 8.34715C121.064 7.23875 121.13 6.05908 121.243 5.72543L121.45 5.11911H120.468H119.486V8.76706ZM70.1387 6.10509C70.9387 6.41949 70.3152 7.97626 69.3198 8.14961C68.9519 8.2136 68.8942 8.08733 68.8386 7.09878C68.7784 6.02912 68.8001 5.97518 69.2918 5.97518C69.5758 5.97518 69.9569 6.03361 70.1387 6.10509ZM22.5719 6.70798C24.1246 7.53003 24.8003 9.11334 24.6375 11.5474C24.4007 15.0838 22.4793 17.2884 19.2977 17.6743L18.2131 17.8059L18.2162 12.479C18.2181 9.54929 18.2886 7.04785 18.373 6.92008C18.8968 6.12757 21.2513 6.00879 22.5719 6.70798ZM70.1392 9.42431C70.886 10.0257 70.8266 11.0607 70.019 11.5225C69.1766 12.0045 68.7972 11.5696 68.7972 10.1224C68.7972 9.1418 68.8549 8.97144 69.187 8.97144C69.4015 8.97144 69.83 9.17519 70.1392 9.42431ZM111.032 9.3661C111.983 10.1545 111.437 11.8765 110.29 11.7083C109.929 11.6552 109.862 11.4596 109.808 10.3091C109.753 9.1067 109.787 8.97144 110.151 8.97144C110.374 8.97144 110.77 9.14908 111.032 9.3661ZM32.5855 24.3273C18.9988 40.2563 18.8097 40.4835 18.4905 41.2504C17.9401 42.5734 18.6247 43.6425 20.0222 43.6425C21.1857 43.6425 21.8194 43.0605 21.7266 42.0782C21.6727 41.508 21.565 41.3839 21.0747 41.3263C20.7515 41.2885 20.3493 41.3743 20.1811 41.5173C19.6876 41.9367 19.5916 41.5725 20.016 40.8917C20.2315 40.546 21.3485 39.1551 22.4981 37.8008L24.5884 35.3385L24.6473 37.7783C24.7291 41.1703 25.1109 40.9311 25.1109 37.4879V34.7575L26.2606 33.4079L27.4102 32.0581V34.533C27.4102 36.0403 27.4919 37.0079 27.6192 37.0079C27.7476 37.0079 27.8283 35.9669 27.8283 34.3132V31.6187L28.7942 30.4608C29.3255 29.8241 29.8429 29.3032 29.9438 29.3032C30.045 29.3032 30.1275 30.3626 30.1275 31.6574C30.1275 33.0843 30.2099 34.0116 30.3366 34.0116C30.4649 34.0116 30.5487 32.9182 30.5535 31.1759L30.5615 28.3401L31.5987 27.2015L32.6358 26.063V28.4322C32.6358 29.8689 32.7182 30.8013 32.8449 30.8013C32.9728 30.8013 33.0539 29.7811 33.0539 28.1689V25.5367L37.8588 19.9966C42.3994 14.7609 42.6448 14.4351 42.3204 14.0681C42.1317 13.8545 41.9074 13.6799 41.8221 13.6799C41.7368 13.6799 37.5803 18.4713 32.5855 24.3273ZM85.4147 17.4258C84.4064 17.7912 83.7329 18.5391 83.4398 19.6193C82.9846 21.2978 83.296 22.8951 84.2636 23.8442C84.7753 24.3463 85.12 24.4773 86.1239 24.5518C87.8651 24.6806 88.779 24.3324 88.9462 23.4763C89.1197 22.5882 88.8049 22.2947 88.3841 22.9524C87.7282 23.9776 85.87 23.8479 85.2903 22.7365C84.8635 21.9183 84.9149 19.6743 85.3769 18.9522C86.1101 17.8068 87.5547 17.6784 88.1103 18.7093C88.2372 18.9447 88.3697 19.1827 88.4046 19.2381C88.5371 19.4479 88.8574 18.6864 88.8605 18.1546C88.863 17.6951 88.725 17.5574 88.0555 17.352C87.0209 17.0346 86.4506 17.0506 85.4147 17.4258ZM67.7849 17.9645C68.0746 18.8154 67.7147 22.0476 67.2492 22.7752C67.0606 23.0697 66.7203 23.3107 66.4931 23.3107C66.1902 23.3107 66.0799 23.4556 66.0799 23.8524C66.0799 24.5638 66.5809 24.7356 67.4363 24.3181C68.3012 23.8956 68.7073 22.7149 68.9051 20.0469L69.0439 18.1742H69.7717H70.4995L70.4322 21.3847L70.3649 24.5954L71.4846 24.595C72.4788 24.5948 72.5845 24.5529 72.4282 24.2203C72.1514 23.6319 72.0837 18.2569 72.3469 17.7537C72.5697 17.3269 72.5237 17.3182 70.0695 17.3182H67.5648L67.7849 17.9645ZM75.9154 17.768C76.0694 18.0625 76.1261 19.3188 76.0796 21.4066L76.0086 24.5952L78.2324 24.595L80.456 24.5948L80.5973 23.8239C80.6751 23.3999 80.6956 23.0089 80.6431 22.955C80.5904 22.9013 80.186 23.0556 79.7443 23.2981C79.3026 23.5403 78.681 23.7387 78.3633 23.7387C77.7962 23.7387 77.7853 23.7145 77.7853 22.4546V21.1705H78.8304C79.7884 21.1705 79.8755 21.1286 79.8755 20.6669C79.8755 20.1916 79.817 20.1691 78.8304 20.2661L77.7853 20.3688V19.1457V17.9226L78.6737 18.0711C79.1621 18.1526 79.757 18.4028 79.9955 18.6269C80.54 19.1384 80.6517 19.0256 80.543 18.0739L80.4568 17.3182H78.0685C75.7065 17.3182 75.6829 17.3231 75.9154 17.768ZM90.8832 18.1094C90.8143 18.5447 90.7969 18.9409 90.8448 18.9899C90.8926 19.0391 91.1846 18.8756 91.4936 18.6267C91.8025 18.3778 92.2829 18.1742 92.5611 18.1742H93.0667L93.0002 21.01C92.9637 22.5695 92.8545 24.0142 92.7576 24.2203C92.6012 24.5529 92.707 24.5948 93.7011 24.595L94.8209 24.5954L94.7535 21.3847C94.6894 18.3279 94.7057 18.1742 95.0911 18.1742C95.3139 18.1742 95.7351 18.3669 96.0276 18.6023C96.7522 19.1859 96.8066 19.1562 96.8066 18.1742V17.3182H93.9076H91.0086L90.8832 18.1094ZM99.4194 20.9565V24.5948H100.378H101.336L101.239 22.8827L101.142 21.1705H102.445H103.749L103.673 22.8827L103.597 24.5948H104.539H105.481V20.9565V17.3182H104.342C103.456 17.3182 103.259 17.3753 103.454 17.575C103.592 17.7162 103.704 18.3422 103.704 18.9661V20.1004H102.426H101.147L101.234 18.7093L101.32 17.3182H100.37H99.4194V20.9565ZM109.035 20.9565V24.5948H109.815C110.679 24.5948 110.704 24.5651 112.512 21.3845C113.371 19.8736 113.428 19.8171 113.495 20.4214C113.535 20.7746 113.535 21.8581 113.495 22.8291L113.424 24.5948H114.439C115.334 24.5948 115.434 24.5503 115.278 24.2203C115.002 23.6319 114.934 18.2569 115.197 17.7537C115.41 17.3466 115.365 17.3182 114.514 17.3182H113.603L112.584 19.1908C112.023 20.2209 111.391 21.3524 111.18 21.7056L110.797 22.3476L110.856 19.8325L110.916 17.3173L109.975 17.3177L109.035 17.3182V20.9565ZM118.153 19.0592C118.35 21.4014 118.639 21.706 120.662 21.7043L122.14 21.7028L122.06 23.1489L121.981 24.5948H122.928L123.875 24.595V20.9567V17.3184H122.933L121.991 17.3182L122.066 19.0019C122.139 20.6515 122.13 20.6881 121.611 20.8212C120.957 20.9897 120.11 20.6795 119.932 20.2064C119.707 19.6043 119.785 17.8462 120.05 17.575C120.245 17.3753 120.046 17.3182 119.154 17.3182H118.007L118.153 19.0592ZM127.429 20.9567V24.595H128.549C129.54 24.5948 129.649 24.5518 129.501 24.2203C129.408 24.0142 129.296 23.2439 129.251 22.5081L129.17 21.1705H130.464H131.758L131.682 22.8827L131.606 24.5948H132.705C133.725 24.5948 134.092 24.3744 133.595 24.0598C133.282 23.862 133.321 17.8986 133.637 17.575C133.832 17.3753 133.632 17.3182 132.739 17.3182H131.589L131.676 18.7093L131.762 20.1004H130.484H129.205V19.1232C129.205 18.5858 129.303 17.9598 129.422 17.7321C129.623 17.3471 129.561 17.3182 128.533 17.3184L127.429 17.3186V20.9567ZM137.044 20.9567V24.595H137.795C138.714 24.5948 138.876 24.4157 140.312 21.8126C141.588 19.4997 141.638 19.5425 141.505 22.8291L141.433 24.5948L142.374 24.595H143.315V20.9567V17.3186L142.479 17.321L141.642 17.3235L140.284 19.8355C138.749 22.6736 138.722 22.6616 138.854 19.1913L138.925 17.318L137.985 17.3182L137.044 17.3186V20.9567ZM146.753 17.6259C146.929 17.8438 146.983 18.9081 146.935 21.2647L146.868 24.5954L147.81 24.595L148.752 24.5948L148.681 22.8291L148.61 21.0635L149.811 22.8291L151.014 24.5948H152.024C153.133 24.5948 153.254 24.4364 152.604 23.8338C152.087 23.3556 150.108 20.6504 150.108 20.4234C150.108 20.1918 152.064 17.7479 152.251 17.7471C152.337 17.7466 152.407 17.6499 152.407 17.5322C152.407 17.4145 152.102 17.3188 151.728 17.3197C151.199 17.3207 150.945 17.4742 150.579 18.0152C150.321 18.397 149.776 19.0945 149.368 19.5654L148.627 20.4214L148.695 18.8698L148.763 17.3182H147.633C146.674 17.3182 146.541 17.3646 146.753 17.6259ZM37.9137 22.2485L35.3532 25.4087V28.4159V31.4231L34.0468 31.4866L32.7404 31.5504L32.6789 33.102L32.6175 34.6537H31.3817H30.1459L30.0845 36.2053L30.023 37.7569L28.7166 37.8207L27.4102 37.8843V39.3724V40.8602H26.0516H24.6929V42.4701C24.6929 44.06 24.6822 44.0919 23.8271 45.0417C23.3509 45.5705 22.5985 46.2122 22.1549 46.4675L21.3485 46.9315V48.5118C21.3485 50.0506 21.3608 50.0881 21.8188 49.9468C23.6154 49.3925 27.4936 46.6993 30.0161 44.2546C35.9974 38.4574 39.3378 31.0879 40.3685 21.4156C40.4983 20.1967 40.5753 19.1744 40.5395 19.1437C40.5036 19.1131 39.3221 20.5103 37.9137 22.2485ZM21.2018 20.3166C25.7359 21.7505 26.994 27.1667 23.6545 30.876C22.2839 32.3986 20.7298 32.8983 19.3569 32.2577C18.2904 31.7604 18.2131 31.2932 18.2131 25.3546V19.8864H19.0273C19.475 19.8864 20.4534 20.0801 21.2018 20.3166Z" fill="#89583F"/>
</g>
<path d="M45.522 48V43.8H49.35V48H48.384V44.37L48.606 44.592H46.266L46.488 44.37V48H45.522ZM54.8911 48.048C54.6191 48.048 54.3811 47.988 54.1771 47.868C53.9731 47.748 53.8131 47.566 53.6971 47.322C53.5851 47.074 53.5291 46.762 53.5291 46.386C53.5291 46.006 53.5831 45.694 53.6911 45.45C53.7991 45.206 53.9551 45.024 54.1591 44.904C54.3631 44.784 54.6071 44.724 54.8911 44.724C55.1951 44.724 55.4671 44.794 55.7071 44.934C55.9511 45.07 56.1431 45.262 56.2831 45.51C56.4271 45.758 56.4991 46.05 56.4991 46.386C56.4991 46.726 56.4271 47.02 56.2831 47.268C56.1431 47.516 55.9511 47.708 55.7071 47.844C55.4671 47.98 55.1951 48.048 54.8911 48.048ZM52.9831 49.164V44.772H53.8771V45.432L53.8591 46.392L53.9191 47.346V49.164H52.9831ZM54.7291 47.28C54.8851 47.28 55.0231 47.244 55.1431 47.172C55.2671 47.1 55.3651 46.998 55.4371 46.866C55.5131 46.73 55.5511 46.57 55.5511 46.386C55.5511 46.198 55.5131 46.038 55.4371 45.906C55.3651 45.774 55.2671 45.672 55.1431 45.6C55.0231 45.528 54.8851 45.492 54.7291 45.492C54.5731 45.492 54.4331 45.528 54.3091 45.6C54.1851 45.672 54.0871 45.774 54.0151 45.906C53.9431 46.038 53.9071 46.198 53.9071 46.386C53.9071 46.57 53.9431 46.73 54.0151 46.866C54.0871 46.998 54.1851 47.1 54.3091 47.172C54.4331 47.244 54.5731 47.28 54.7291 47.28ZM61.3372 48.048C60.9932 48.048 60.6872 47.976 60.4192 47.832C60.1552 47.688 59.9452 47.492 59.7892 47.244C59.6372 46.992 59.5612 46.706 59.5612 46.386C59.5612 46.062 59.6372 45.776 59.7892 45.528C59.9452 45.276 60.1552 45.08 60.4192 44.94C60.6872 44.796 60.9932 44.724 61.3372 44.724C61.6772 44.724 61.9812 44.796 62.2492 44.94C62.5172 45.08 62.7272 45.274 62.8792 45.522C63.0312 45.77 63.1072 46.058 63.1072 46.386C63.1072 46.706 63.0312 46.992 62.8792 47.244C62.7272 47.492 62.5172 47.688 62.2492 47.832C61.9812 47.976 61.6772 48.048 61.3372 48.048ZM61.3372 47.28C61.4932 47.28 61.6332 47.244 61.7572 47.172C61.8812 47.1 61.9792 46.998 62.0512 46.866C62.1232 46.73 62.1592 46.57 62.1592 46.386C62.1592 46.198 62.1232 46.038 62.0512 45.906C61.9792 45.774 61.8812 45.672 61.7572 45.6C61.6332 45.528 61.4932 45.492 61.3372 45.492C61.1812 45.492 61.0412 45.528 60.9172 45.6C60.7932 45.672 60.6932 45.774 60.6172 45.906C60.5452 46.038 60.5092 46.198 60.5092 46.386C60.5092 46.57 60.5452 46.73 60.6172 46.866C60.6932 46.998 60.7932 47.1 60.9172 47.172C61.0412 47.244 61.1812 47.28 61.3372 47.28ZM67.9569 48.048C67.6089 48.048 67.2989 47.978 67.0269 47.838C66.7549 47.694 66.5409 47.496 66.3849 47.244C66.2329 46.992 66.1569 46.706 66.1569 46.386C66.1569 46.062 66.2329 45.776 66.3849 45.528C66.5409 45.276 66.7549 45.08 67.0269 44.94C67.2989 44.796 67.6089 44.724 67.9569 44.724C68.2969 44.724 68.5929 44.796 68.8449 44.94C69.0969 45.08 69.2829 45.282 69.4029 45.546L68.6769 45.936C68.5929 45.784 68.4869 45.672 68.3589 45.6C68.2349 45.528 68.0989 45.492 67.9509 45.492C67.7909 45.492 67.6469 45.528 67.5189 45.6C67.3909 45.672 67.2889 45.774 67.2129 45.906C67.1409 46.038 67.1049 46.198 67.1049 46.386C67.1049 46.574 67.1409 46.734 67.2129 46.866C67.2889 46.998 67.3909 47.1 67.5189 47.172C67.6469 47.244 67.7909 47.28 67.9509 47.28C68.0989 47.28 68.2349 47.246 68.3589 47.178C68.4869 47.106 68.5929 46.992 68.6769 46.836L69.4029 47.232C69.2829 47.492 69.0969 47.694 68.8449 47.838C68.5929 47.978 68.2969 48.048 67.9569 48.048ZM73.3259 48V45.324L73.5359 45.54H72.2339V44.772H75.3479V45.54H74.0459L74.2559 45.324V48H73.3259ZM79.894 48.048C79.55 48.048 79.244 47.976 78.976 47.832C78.712 47.688 78.502 47.492 78.346 47.244C78.194 46.992 78.118 46.706 78.118 46.386C78.118 46.062 78.194 45.776 78.346 45.528C78.502 45.276 78.712 45.08 78.976 44.94C79.244 44.796 79.55 44.724 79.894 44.724C80.234 44.724 80.538 44.796 80.806 44.94C81.074 45.08 81.284 45.274 81.436 45.522C81.588 45.77 81.664 46.058 81.664 46.386C81.664 46.706 81.588 46.992 81.436 47.244C81.284 47.492 81.074 47.688 80.806 47.832C80.538 47.976 80.234 48.048 79.894 48.048ZM79.894 47.28C80.05 47.28 80.19 47.244 80.314 47.172C80.438 47.1 80.536 46.998 80.608 46.866C80.68 46.73 80.716 46.57 80.716 46.386C80.716 46.198 80.68 46.038 80.608 45.906C80.536 45.774 80.438 45.672 80.314 45.6C80.19 45.528 80.05 45.492 79.894 45.492C79.738 45.492 79.598 45.528 79.474 45.6C79.35 45.672 79.25 45.774 79.174 45.906C79.102 46.038 79.066 46.198 79.066 46.386C79.066 46.57 79.102 46.73 79.174 46.866C79.25 46.998 79.35 47.1 79.474 47.172C79.598 47.244 79.738 47.28 79.894 47.28ZM91.633 48L90.553 46.47L91.315 46.02L92.737 48H91.633ZM89.347 48V44.772H90.283V48H89.347ZM90.007 46.776V46.026H91.135V46.776H90.007ZM91.405 46.494L90.529 46.398L91.663 44.772H92.659L91.405 46.494ZM100.236 48V44.772H101.886C102.29 44.772 102.606 44.846 102.834 44.994C103.062 45.138 103.176 45.342 103.176 45.606C103.176 45.87 103.068 46.078 102.852 46.23C102.64 46.378 102.358 46.452 102.006 46.452L102.102 46.236C102.494 46.236 102.786 46.308 102.978 46.452C103.174 46.596 103.272 46.806 103.272 47.082C103.272 47.366 103.164 47.59 102.948 47.754C102.732 47.918 102.402 48 101.958 48H100.236ZM101.094 47.364H101.88C102.052 47.364 102.18 47.336 102.264 47.28C102.352 47.22 102.396 47.13 102.396 47.01C102.396 46.886 102.356 46.796 102.276 46.74C102.196 46.68 102.07 46.65 101.898 46.65H101.094V47.364ZM101.094 46.098H101.802C101.966 46.098 102.088 46.068 102.168 46.008C102.252 45.948 102.294 45.862 102.294 45.75C102.294 45.634 102.252 45.548 102.168 45.492C102.088 45.436 101.966 45.408 101.802 45.408H101.094V46.098ZM108.216 48.048C107.848 48.048 107.524 47.976 107.244 47.832C106.968 47.688 106.754 47.492 106.602 47.244C106.45 46.992 106.374 46.706 106.374 46.386C106.374 46.062 106.448 45.776 106.596 45.528C106.748 45.276 106.954 45.08 107.214 44.94C107.474 44.796 107.768 44.724 108.096 44.724C108.412 44.724 108.696 44.792 108.948 44.928C109.204 45.06 109.406 45.252 109.554 45.504C109.702 45.752 109.776 46.05 109.776 46.398C109.776 46.434 109.774 46.476 109.77 46.524C109.766 46.568 109.762 46.61 109.758 46.65H107.136V46.104H109.266L108.906 46.266C108.906 46.098 108.872 45.952 108.804 45.828C108.736 45.704 108.642 45.608 108.522 45.54C108.402 45.468 108.262 45.432 108.102 45.432C107.942 45.432 107.8 45.468 107.676 45.54C107.556 45.608 107.462 45.706 107.394 45.834C107.326 45.958 107.292 46.106 107.292 46.278V46.422C107.292 46.598 107.33 46.754 107.406 46.89C107.486 47.022 107.596 47.124 107.736 47.196C107.88 47.264 108.048 47.298 108.24 47.298C108.412 47.298 108.562 47.272 108.69 47.22C108.822 47.168 108.942 47.09 109.05 46.986L109.548 47.526C109.4 47.694 109.214 47.824 108.99 47.916C108.766 48.004 108.508 48.048 108.216 48.048ZM115.066 48.048C114.794 48.048 114.556 47.988 114.352 47.868C114.148 47.748 113.988 47.566 113.872 47.322C113.76 47.074 113.704 46.762 113.704 46.386C113.704 46.006 113.758 45.694 113.866 45.45C113.974 45.206 114.13 45.024 114.334 44.904C114.538 44.784 114.782 44.724 115.066 44.724C115.37 44.724 115.642 44.794 115.882 44.934C116.126 45.07 116.318 45.262 116.458 45.51C116.602 45.758 116.674 46.05 116.674 46.386C116.674 46.726 116.602 47.02 116.458 47.268C116.318 47.516 116.126 47.708 115.882 47.844C115.642 47.98 115.37 48.048 115.066 48.048ZM113.158 49.164V44.772H114.052V45.432L114.034 46.392L114.094 47.346V49.164H113.158ZM114.904 47.28C115.06 47.28 115.198 47.244 115.318 47.172C115.442 47.1 115.54 46.998 115.612 46.866C115.688 46.73 115.726 46.57 115.726 46.386C115.726 46.198 115.688 46.038 115.612 45.906C115.54 45.774 115.442 45.672 115.318 45.6C115.198 45.528 115.06 45.492 114.904 45.492C114.748 45.492 114.608 45.528 114.484 45.6C114.36 45.672 114.262 45.774 114.19 45.906C114.118 46.038 114.082 46.198 114.082 46.386C114.082 46.57 114.118 46.73 114.19 46.866C114.262 46.998 114.36 47.1 114.484 47.172C114.608 47.244 114.748 47.28 114.904 47.28ZM122.202 47.232L121.998 47.448V44.772H122.934V47.448L122.718 47.232H124.206L123.996 47.448V44.772H124.926V48H120V44.772H120.93V47.448L120.72 47.232H122.202ZM128.494 48V44.772H129.424V46.692L130.996 44.772H131.854V48H130.924V46.08L129.358 48H128.494ZM135.424 48V44.772H136.354V46.032H137.758V44.772H138.694V48H137.758V46.794H136.354V48H135.424ZM144.192 48V47.37L144.132 47.232V46.104C144.132 45.904 144.07 45.748 143.946 45.636C143.826 45.524 143.64 45.468 143.388 45.468C143.216 45.468 143.046 45.496 142.878 45.552C142.714 45.604 142.574 45.676 142.458 45.768L142.122 45.114C142.298 44.99 142.51 44.894 142.758 44.826C143.006 44.758 143.258 44.724 143.514 44.724C144.006 44.724 144.388 44.84 144.66 45.072C144.932 45.304 145.068 45.666 145.068 46.158V48H144.192ZM143.208 48.048C142.956 48.048 142.74 48.006 142.56 47.922C142.38 47.834 142.242 47.716 142.146 47.568C142.05 47.42 142.002 47.254 142.002 47.07C142.002 46.878 142.048 46.71 142.14 46.566C142.236 46.422 142.386 46.31 142.59 46.23C142.794 46.146 143.06 46.104 143.388 46.104H144.246V46.65H143.49C143.27 46.65 143.118 46.686 143.034 46.758C142.954 46.83 142.914 46.92 142.914 47.028C142.914 47.148 142.96 47.244 143.052 47.316C143.148 47.384 143.278 47.418 143.442 47.418C143.598 47.418 143.738 47.382 143.862 47.31C143.986 47.234 144.076 47.124 144.132 46.98L144.276 47.412C144.208 47.62 144.084 47.778 143.904 47.886C143.724 47.994 143.492 48.048 143.208 48.048ZM148.551 48V44.772H149.529L150.747 46.98H150.357L151.659 44.772H152.535L152.547 48H151.701V45.732L151.845 45.828L150.735 47.688H150.339L149.223 45.762L149.397 45.72V48H148.551Z" fill="#89583F"/>
<defs>
<filter id="filter0_d_205_2" x="0" y="0" width="158" height="60" filterUnits="userSpaceOnUse" color-interpolation-filters="sRGB">
<feFlood flood-opacity="0" result="BackgroundImageFix"/>
<feColorMatrix in="SourceAlpha" type="matrix" values="0 0 0 0 0 0 0 0 0 0 0 0 0 0 0 0 0 0 127 0" result="hardAlpha"/>
<feOffset dy="5"/>
<feGaussianBlur stdDeviation="2.5"/>
<feComposite in2="hardAlpha" operator="out"/>
<feColorMatrix type="matrix" values="0 0 0 0 1 0 0 0 0 1 0 0 0 0 1 0 0 0 0.25 0"/>
<feBlend mode="normal" in2="BackgroundImageFix" result="effect1_dropShadow_205_2"/>
<feBlend mode="normal" in="SourceGraphic" in2="effect1_dropShadow_205_2" result="shape"/>
</filter>
</defs>
</svg>
