<svg width="190" height="64" viewBox="0 0 190 64" fill="none" xmlns="http://www.w3.org/2000/svg">
<path d="M79 42H175V40H79V42Z" fill="#DDE5B6"/>
<path d="M49.696 58V52.4H54.8V58H53.512V53.16L53.808 53.456H50.688L50.984 53.16V58H49.696ZM61.1082 58.064C60.7455 58.064 60.4282 57.984 60.1562 57.824C59.8842 57.664 59.6709 57.4213 59.5162 57.096C59.3669 56.7653 59.2922 56.3493 59.2922 55.848C59.2922 55.3413 59.3642 54.9253 59.5082 54.6C59.6522 54.2747 59.8602 54.032 60.1322 53.872C60.4042 53.712 60.7295 53.632 61.1082 53.632C61.5135 53.632 61.8762 53.7253 62.1962 53.912C62.5215 54.0933 62.7775 54.3493 62.9642 54.68C63.1562 55.0107 63.2522 55.4 63.2522 55.848C63.2522 56.3013 63.1562 56.6933 62.9642 57.024C62.7775 57.3547 62.5215 57.6107 62.1962 57.792C61.8762 57.9733 61.5135 58.064 61.1082 58.064ZM58.5642 59.552V53.696H59.7562V54.576L59.7322 55.856L59.8122 57.128V59.552H58.5642ZM60.8922 57.04C61.1002 57.04 61.2842 56.992 61.4442 56.896C61.6095 56.8 61.7402 56.664 61.8362 56.488C61.9375 56.3067 61.9882 56.0933 61.9882 55.848C61.9882 55.5973 61.9375 55.384 61.8362 55.208C61.7402 55.032 61.6095 54.896 61.4442 54.8C61.2842 54.704 61.1002 54.656 60.8922 54.656C60.6842 54.656 60.4975 54.704 60.3322 54.8C60.1669 54.896 60.0362 55.032 59.9402 55.208C59.8442 55.384 59.7962 55.5973 59.7962 55.848C59.7962 56.0933 59.8442 56.3067 59.9402 56.488C60.0362 56.664 60.1669 56.8 60.3322 56.896C60.4975 56.992 60.6842 57.04 60.8922 57.04ZM68.6229 58.064C68.1642 58.064 67.7562 57.968 67.3989 57.776C67.0469 57.584 66.7669 57.3227 66.5589 56.992C66.3562 56.656 66.2549 56.2747 66.2549 55.848C66.2549 55.416 66.3562 55.0347 66.5589 54.704C66.7669 54.368 67.0469 54.1067 67.3989 53.92C67.7562 53.728 68.1642 53.632 68.6229 53.632C69.0762 53.632 69.4815 53.728 69.8389 53.92C70.1962 54.1067 70.4762 54.3653 70.6789 54.696C70.8815 55.0267 70.9829 55.4107 70.9829 55.848C70.9829 56.2747 70.8815 56.656 70.6789 56.992C70.4762 57.3227 70.1962 57.584 69.8389 57.776C69.4815 57.968 69.0762 58.064 68.6229 58.064ZM68.6229 57.04C68.8309 57.04 69.0175 56.992 69.1829 56.896C69.3482 56.8 69.4789 56.664 69.5749 56.488C69.6709 56.3067 69.7189 56.0933 69.7189 55.848C69.7189 55.5973 69.6709 55.384 69.5749 55.208C69.4789 55.032 69.3482 54.896 69.1829 54.8C69.0175 54.704 68.8309 54.656 68.6229 54.656C68.4149 54.656 68.2282 54.704 68.0629 54.8C67.8975 54.896 67.7642 55.032 67.6629 55.208C67.5669 55.384 67.5189 55.5973 67.5189 55.848C67.5189 56.0933 67.5669 56.3067 67.6629 56.488C67.7642 56.664 67.8975 56.8 68.0629 56.896C68.2282 56.992 68.4149 57.04 68.6229 57.04ZM76.3693 58.064C75.9053 58.064 75.4919 57.9707 75.1293 57.784C74.7666 57.592 74.4813 57.328 74.2733 56.992C74.0706 56.656 73.9693 56.2747 73.9693 55.848C73.9693 55.416 74.0706 55.0347 74.2733 54.704C74.4813 54.368 74.7666 54.1067 75.1293 53.92C75.4919 53.728 75.9053 53.632 76.3693 53.632C76.8226 53.632 77.2173 53.728 77.5533 53.92C77.8893 54.1067 78.1373 54.376 78.2973 54.728L77.3293 55.248C77.2173 55.0453 77.0759 54.896 76.9053 54.8C76.7399 54.704 76.5586 54.656 76.3613 54.656C76.1479 54.656 75.9559 54.704 75.7853 54.8C75.6146 54.896 75.4786 55.032 75.3773 55.208C75.2813 55.384 75.2333 55.5973 75.2333 55.848C75.2333 56.0987 75.2813 56.312 75.3773 56.488C75.4786 56.664 75.6146 56.8 75.7853 56.896C75.9559 56.992 76.1479 57.04 76.3613 57.04C76.5586 57.04 76.7399 56.9947 76.9053 56.904C77.0759 56.808 77.2173 56.656 77.3293 56.448L78.2973 56.976C78.1373 57.3227 77.8893 57.592 77.5533 57.784C77.2173 57.9707 76.8226 58.064 76.3693 58.064ZM82.4478 58V54.432L82.7278 54.72H80.9918V53.696H85.1438V54.72H83.4078L83.6878 54.432V58H82.4478ZM90.1254 58.064C89.6667 58.064 89.2587 57.968 88.9014 57.776C88.5494 57.584 88.2694 57.3227 88.0614 56.992C87.8587 56.656 87.7574 56.2747 87.7574 55.848C87.7574 55.416 87.8587 55.0347 88.0614 54.704C88.2694 54.368 88.5494 54.1067 88.9014 53.92C89.2587 53.728 89.6667 53.632 90.1254 53.632C90.5787 53.632 90.984 53.728 91.3414 53.92C91.6987 54.1067 91.9787 54.3653 92.1814 54.696C92.384 55.0267 92.4854 55.4107 92.4854 55.848C92.4854 56.2747 92.384 56.656 92.1814 56.992C91.9787 57.3227 91.6987 57.584 91.3414 57.776C90.984 57.968 90.5787 58.064 90.1254 58.064ZM90.1254 57.04C90.3334 57.04 90.52 56.992 90.6854 56.896C90.8507 56.8 90.9814 56.664 91.0774 56.488C91.1734 56.3067 91.2214 56.0933 91.2214 55.848C91.2214 55.5973 91.1734 55.384 91.0774 55.208C90.9814 55.032 90.8507 54.896 90.6854 54.8C90.52 54.704 90.3334 54.656 90.1254 54.656C89.9174 54.656 89.7307 54.704 89.5654 54.8C89.4 54.896 89.2667 55.032 89.1654 55.208C89.0694 55.384 89.0214 55.5973 89.0214 55.848C89.0214 56.0933 89.0694 56.3067 89.1654 56.488C89.2667 56.664 89.4 56.8 89.5654 56.896C89.7307 56.992 89.9174 57.04 90.1254 57.04ZM103.617 58L102.177 55.96L103.193 55.36L105.089 58H103.617ZM100.569 58V53.696H101.817V58H100.569ZM101.449 56.368V55.368H102.953V56.368H101.449ZM103.313 55.992L102.145 55.864L103.657 53.696H104.985L103.313 55.992ZM112.928 58V53.696H115.128C115.666 53.696 116.088 53.7947 116.392 53.992C116.696 54.184 116.848 54.456 116.848 54.808C116.848 55.16 116.704 55.4373 116.416 55.64C116.133 55.8373 115.757 55.936 115.288 55.936L115.416 55.648C115.938 55.648 116.328 55.744 116.584 55.936C116.845 56.128 116.976 56.408 116.976 56.776C116.976 57.1547 116.832 57.4533 116.544 57.672C116.256 57.8907 115.816 58 115.224 58H112.928ZM114.072 57.152H115.12C115.349 57.152 115.52 57.1147 115.632 57.04C115.749 56.96 115.808 56.84 115.808 56.68C115.808 56.5147 115.754 56.3947 115.648 56.32C115.541 56.24 115.373 56.2 115.144 56.2H114.072V57.152ZM114.072 55.464H115.016C115.234 55.464 115.397 55.424 115.504 55.344C115.616 55.264 115.672 55.1493 115.672 55C115.672 54.8453 115.616 54.7307 115.504 54.656C115.397 54.5813 115.234 54.544 115.016 54.544H114.072V55.464ZM122.488 58.064C121.998 58.064 121.566 57.968 121.192 57.776C120.824 57.584 120.539 57.3227 120.336 56.992C120.134 56.656 120.032 56.2747 120.032 55.848C120.032 55.416 120.131 55.0347 120.328 54.704C120.531 54.368 120.806 54.1067 121.152 53.92C121.499 53.728 121.891 53.632 122.328 53.632C122.75 53.632 123.128 53.7227 123.464 53.904C123.806 54.08 124.075 54.336 124.272 54.672C124.47 55.0027 124.568 55.4 124.568 55.864C124.568 55.912 124.566 55.968 124.56 56.032C124.555 56.0907 124.55 56.1467 124.544 56.2H121.048V55.472H123.888L123.408 55.688C123.408 55.464 123.363 55.2693 123.272 55.104C123.182 54.9387 123.056 54.8107 122.896 54.72C122.736 54.624 122.55 54.576 122.336 54.576C122.123 54.576 121.934 54.624 121.768 54.72C121.608 54.8107 121.483 54.9413 121.392 55.112C121.302 55.2773 121.256 55.4747 121.256 55.704V55.896C121.256 56.1307 121.307 56.3387 121.408 56.52C121.515 56.696 121.662 56.832 121.848 56.928C122.04 57.0187 122.264 57.064 122.52 57.064C122.75 57.064 122.95 57.0293 123.12 56.96C123.296 56.8907 123.456 56.7867 123.6 56.648L124.264 57.368C124.067 57.592 123.819 57.7653 123.52 57.888C123.222 58.0053 122.878 58.064 122.488 58.064ZM130.541 58.064C130.178 58.064 129.861 57.984 129.589 57.824C129.317 57.664 129.104 57.4213 128.949 57.096C128.8 56.7653 128.725 56.3493 128.725 55.848C128.725 55.3413 128.797 54.9253 128.941 54.6C129.085 54.2747 129.293 54.032 129.565 53.872C129.837 53.712 130.162 53.632 130.541 53.632C130.946 53.632 131.309 53.7253 131.629 53.912C131.954 54.0933 132.21 54.3493 132.397 54.68C132.589 55.0107 132.685 55.4 132.685 55.848C132.685 56.3013 132.589 56.6933 132.397 57.024C132.21 57.3547 131.954 57.6107 131.629 57.792C131.309 57.9733 130.946 58.064 130.541 58.064ZM127.997 59.552V53.696H129.189V54.576L129.165 55.856L129.245 57.128V59.552H127.997ZM130.325 57.04C130.533 57.04 130.717 56.992 130.877 56.896C131.042 56.8 131.173 56.664 131.269 56.488C131.37 56.3067 131.421 56.0933 131.421 55.848C131.421 55.5973 131.37 55.384 131.269 55.208C131.173 55.032 131.042 54.896 130.877 54.8C130.717 54.704 130.533 54.656 130.325 54.656C130.117 54.656 129.93 54.704 129.765 54.8C129.6 54.896 129.469 55.032 129.373 55.208C129.277 55.384 129.229 55.5973 129.229 55.848C129.229 56.0933 129.277 56.3067 129.373 56.488C129.469 56.664 129.6 56.8 129.765 56.896C129.93 56.992 130.117 57.04 130.325 57.04ZM138.976 56.976L138.704 57.264V53.696H139.952V57.264L139.664 56.976H141.648L141.368 57.264V53.696H142.608V58H136.04V53.696H137.28V57.264L137 56.976H138.976ZM146.285 58V53.696H147.525V56.256L149.621 53.696H150.765V58H149.525V55.44L147.437 58H146.285ZM154.445 58V53.696H155.685V55.376H157.557V53.696H158.805V58H157.557V56.392H155.685V58H154.445ZM165.056 58V57.16L164.976 56.976V55.472C164.976 55.2053 164.893 54.9973 164.728 54.848C164.568 54.6987 164.32 54.624 163.984 54.624C163.754 54.624 163.528 54.6613 163.304 54.736C163.085 54.8053 162.898 54.9013 162.744 55.024L162.296 54.152C162.53 53.9867 162.813 53.8587 163.144 53.768C163.474 53.6773 163.81 53.632 164.152 53.632C164.808 53.632 165.317 53.7867 165.68 54.096C166.042 54.4053 166.224 54.888 166.224 55.544V58H165.056ZM163.744 58.064C163.408 58.064 163.12 58.008 162.88 57.896C162.64 57.7787 162.456 57.6213 162.328 57.424C162.2 57.2267 162.136 57.0053 162.136 56.76C162.136 56.504 162.197 56.28 162.32 56.088C162.448 55.896 162.648 55.7467 162.92 55.64C163.192 55.528 163.546 55.472 163.984 55.472H165.128V56.2H164.12C163.826 56.2 163.624 56.248 163.512 56.344C163.405 56.44 163.352 56.56 163.352 56.704C163.352 56.864 163.413 56.992 163.536 57.088C163.664 57.1787 163.837 57.224 164.056 57.224C164.264 57.224 164.45 57.176 164.616 57.08C164.781 56.9787 164.901 56.832 164.976 56.64L165.168 57.216C165.077 57.4933 164.912 57.704 164.672 57.848C164.432 57.992 164.122 58.064 163.744 58.064ZM169.788 58V53.696H171.092L172.716 56.64H172.196L173.932 53.696H175.1L175.116 58H173.988V54.976L174.18 55.104L172.7 57.584H172.172L170.684 55.016L170.916 54.96V58H169.788Z" fill="#F0EAD2"/>
<path fill-rule="evenodd" clip-rule="evenodd" d="M1.01165 0.991591L0 1.98318L2.73254 3.32636C4.23553 4.06524 6.15016 5.16418 6.98766 5.76849C9.64479 7.68618 9.44917 6.25722 9.44917 23.736C9.44917 37.3124 9.39953 39.1669 9.01606 39.9405C8.77777 40.4207 8.46837 40.8139 8.3283 40.8139C8.18822 40.8139 8.11121 41.1894 8.15763 41.6486L8.24162 42.4833L14.3059 42.5521L20.3699 42.6212L26.5155 35.7599C34.5591 26.7794 33.7154 27.9043 33.1678 26.8906C32.0034 24.7356 29.8033 22.9494 27.3544 22.171L25.9896 21.7369L27.1783 21.1575C27.8323 20.8386 28.9148 20.1159 29.584 19.5511C33.4178 16.3159 33.7796 10.2685 30.3182 7.27578C27.8935 5.17934 25.016 4.58941 17.5657 4.66158C12.3328 4.71243 12.2418 4.70396 10.2542 3.98306C8.14502 3.21798 4.97991 1.73689 3.11976 0.64411L2.02304 0L1.01165 0.991591ZM149.284 4.26043C148.907 5.05221 148.946 5.1028 150.139 5.36039C151.096 5.56688 152.656 5.20502 153.418 4.59994C154.139 4.02723 153.841 3.87827 152.252 4.01619C151.353 4.09426 150.455 4.03365 150.144 3.87391C149.681 3.63686 149.554 3.69439 149.284 4.26043ZM37.6252 5.42255C37.6252 5.96804 37.8726 6.49041 38.3631 6.97992L39.1011 7.71648L39.2353 14.7629L39.3694 21.8093L42.5225 18.4124L45.6755 15.0154V12.2486V9.48162H49.8348H53.9941V23.3629C53.9941 35.303 53.937 37.3499 53.5846 38.0017C53.3595 38.4183 53.0659 38.7594 52.932 38.7594C52.5754 38.7594 52.3213 39.706 52.5182 40.3003C52.6728 40.7667 52.9243 40.8139 55.2524 40.8139C58.5745 40.8139 62.8285 41.4267 65.6799 42.3164L67.9461 43.0231L68.8008 42.1792C69.2709 41.7151 69.6034 41.286 69.5398 41.2256C69.4759 41.1655 68.1559 40.6532 66.6063 40.0871C65.0566 39.5211 63.5729 38.9769 63.3091 38.8775C62.0651 38.4093 62.0444 38.1432 62.046 22.785C62.0477 10.1712 62.1013 8.22756 62.4673 7.55571C62.6981 7.13195 63.0598 6.69279 63.2708 6.57979C63.4879 6.46345 63.6545 5.98935 63.6545 5.48804V4.602H50.6398H37.6252V5.42255ZM79.6209 10.4773V14.8749H81.6952C84.3829 14.8749 85.8513 14.3407 86.3587 13.1781C86.8305 12.0979 86.5007 11.1926 85.4024 10.5536L84.596 10.0841L85.4107 9.50782C86.1001 9.01986 86.2128 8.7864 86.1433 7.98846C86.0335 6.72874 85.1845 6.35815 82.0497 6.20123L79.6209 6.07975V10.4773ZM90.3546 10.5087V14.8744L93.3442 14.8746L96.3336 14.8749L96.4592 13.9118C96.5281 13.3822 96.5507 12.9097 96.5096 12.8619C96.4683 12.8141 96.0929 13.0055 95.6756 13.2872C95.2581 13.5689 94.4638 13.8735 93.9102 13.9637L92.9039 14.1278V12.4132V10.699L94.1114 10.8292C95.2422 10.9512 95.319 10.9206 95.319 10.3489C95.319 9.79649 95.2039 9.73844 94.1114 9.73844H92.9039V8.45433C92.9039 7.17664 92.9082 7.17022 93.776 7.17125C94.2558 7.17176 95.0404 7.4011 95.5202 7.68104L96.3924 8.19006V7.16637V6.14293L93.3735 6.14268H90.3546V10.5087ZM102.133 6.63321C99.5218 7.7681 99.0213 12.5571 101.332 14.2968C102.191 14.9437 103.8 15.2375 105.223 15.0074C106.574 14.7889 107.022 14.4278 107.22 13.3982C107.416 12.384 107.015 12.3026 106.273 13.2055C105.547 14.0893 103.881 14.1039 102.972 13.2343C101.757 12.0709 101.754 9.0892 102.966 7.83668C103.863 6.91083 105.269 6.91751 106.037 7.85157C106.677 8.63 106.789 8.59071 107.016 7.5064C107.163 6.79963 107.095 6.69638 106.307 6.43366C105.034 6.00861 103.389 6.0872 102.133 6.63321ZM110.749 10.5087V14.8744L113.739 14.8746L116.73 14.8749L116.832 13.8476C116.889 13.2826 116.896 12.8203 116.85 12.8203C116.803 12.8203 116.438 13.0407 116.038 13.3101C115.638 13.5792 114.858 13.8735 114.304 13.9637L113.298 14.1278V12.4132V10.699L114.506 10.8292C115.636 10.9512 115.713 10.9206 115.713 10.3489C115.713 9.79649 115.598 9.73844 114.506 9.73844H113.298V8.45433C113.298 7.17664 113.302 7.17022 114.17 7.17125C114.65 7.17176 115.435 7.4011 115.914 7.68104L116.786 8.19006V7.16637V6.14293L113.768 6.14268H110.749V10.5087ZM121.348 6.3846C121.348 6.51764 121.486 6.70768 121.654 6.80733C122.093 7.06647 121.748 11.5755 121.214 12.563C120.977 13.0021 120.582 13.334 120.297 13.334C119.801 13.334 119.47 13.8052 119.47 14.5107C119.47 15.1327 121.168 14.9635 121.845 14.2739C122.618 13.4857 122.907 12.4528 123.125 9.69735L123.304 7.42704H124.353H125.403L125.317 10.7015C125.27 12.5026 125.129 14.1784 125.005 14.4255C124.805 14.8246 124.941 14.8749 126.217 14.8746L127.654 14.8744V10.5087V6.14268H124.501C122.71 6.14293 121.348 6.2472 121.348 6.3846ZM132.307 10.1334C132.373 12.9965 132.307 14.2303 132.073 14.4997C131.792 14.8238 132.063 14.8749 134.07 14.8749C137.723 14.8749 139.33 13.8967 138.94 11.9104C138.721 10.7894 137.668 10.1078 135.772 9.85812L134.44 9.68271L134.544 7.9127L134.649 6.14293L133.433 6.14268L132.216 6.14242L132.307 10.1334ZM139.998 10.5087V14.8746H141.206L142.413 14.8749V10.5089V6.14293H141.206L139.998 6.14268V10.5087ZM146.975 10.5205V14.8983L148.048 14.8222C149.103 14.7478 149.151 14.7003 150.769 12.1004C151.674 10.645 152.5 9.37376 152.604 9.27539C152.708 9.17703 152.752 10.3967 152.702 11.9859L152.61 14.8754L153.894 14.8751C155.116 14.8749 155.164 14.8487 154.877 14.335C154.679 13.9817 154.606 12.4741 154.666 9.96881L154.757 6.14242L153.818 6.14499C152.898 6.1473 152.839 6.21407 151 9.29132L149.122 12.4351L149.044 10.0166C149.001 8.6865 149.086 7.2709 149.231 6.87051L149.496 6.14293H148.236H146.975V10.5205ZM83.6241 7.32611C84.651 7.70338 83.8505 9.57151 82.5727 9.77954C82.1004 9.85633 82.0263 9.7048 81.955 8.51854C81.8777 7.23494 81.9056 7.17022 82.5367 7.17022C82.9014 7.17022 83.3906 7.24033 83.6241 7.32611ZM22.5585 8.04958C24.5518 9.03604 25.4193 10.936 25.2103 13.8568C24.9063 18.1006 22.4397 20.7461 18.3552 21.2092L16.9628 21.3671L16.9668 14.9748C16.9692 11.4592 17.0596 8.45741 17.1681 8.30409C17.8405 7.35308 20.8631 7.21054 22.5585 8.04958ZM83.6246 11.3092C84.5834 12.0308 84.5072 13.2728 83.4703 13.8271C82.3889 14.4054 81.9018 13.8836 81.9018 12.1469C81.9018 10.9702 81.9759 10.7657 82.4023 10.7657C82.6776 10.7657 83.2277 11.0102 83.6246 11.3092ZM136.122 11.2393C137.343 12.1854 136.642 14.2518 135.17 14.05C134.707 13.9863 134.62 13.7515 134.551 12.3709C134.48 10.928 134.524 10.7657 134.991 10.7657C135.277 10.7657 135.786 10.9789 136.122 11.2393ZM35.4138 29.1927C17.9715 48.3075 17.7286 48.5802 17.3189 49.5004C16.6123 51.0881 17.4911 52.3709 19.2853 52.3709C20.7789 52.3709 21.5925 51.6726 21.4734 50.4938C21.4041 49.8097 21.2659 49.6607 20.6364 49.5916C20.2215 49.5462 19.7052 49.6491 19.4892 49.8207C18.8557 50.3241 18.7325 49.887 19.2772 49.07C19.5539 48.6552 20.9879 46.9862 22.4638 45.361L25.1472 42.4062L25.2229 45.334C25.3278 49.4044 25.8181 49.1173 25.8181 44.9855V41.709L27.294 40.0894L28.7699 38.4697V41.4396C28.7699 43.2484 28.8748 44.4095 29.0382 44.4095C29.203 44.4095 29.3066 43.1603 29.3066 41.1758V37.9424L30.5466 36.553C31.2287 35.789 31.8929 35.1639 32.0225 35.1639C32.1523 35.1639 32.2583 36.4351 32.2583 37.9889C32.2583 39.7011 32.3641 40.8139 32.5267 40.8139C32.6914 40.8139 32.7991 39.5018 32.8052 37.411L32.8154 34.0082L34.1469 32.6419L35.4785 31.2756V34.1186C35.4785 35.8426 35.5842 36.9616 35.7468 36.9616C35.911 36.9616 36.0151 35.7373 36.0151 33.8027V30.644L42.1835 23.9959C48.0128 17.713 48.3278 17.3222 47.9113 16.8817C47.669 16.6254 47.3811 16.4158 47.2716 16.4158C47.1621 16.4158 41.8261 22.1656 35.4138 29.1927ZM103.235 20.911C101.941 21.3494 101.076 22.247 100.7 23.5432C100.115 25.5574 100.515 27.4741 101.757 28.6131C102.414 29.2156 102.857 29.3728 104.146 29.4621C106.381 29.6167 107.554 29.1989 107.769 28.1716C107.991 27.1058 107.587 26.7537 107.047 27.5429C106.205 28.7731 103.82 28.6175 103.075 27.2838C102.527 26.3019 102.594 23.6092 103.187 22.7426C104.128 21.3681 105.982 21.214 106.696 22.4511C106.859 22.7337 107.029 23.0192 107.073 23.0858C107.244 23.3374 107.655 22.4237 107.659 21.7855C107.662 21.2341 107.485 21.0689 106.625 20.8224C105.297 20.4415 104.565 20.4608 103.235 20.911ZM80.6022 21.5574C80.9742 22.5785 80.5121 26.4571 79.9145 27.3303C79.6724 27.6836 79.2356 27.9728 78.9439 27.9728C78.5551 27.9728 78.4134 28.1467 78.4134 28.6228C78.4134 29.4765 79.0566 29.6827 80.1547 29.1817C81.2651 28.6747 81.7864 27.2578 82.0403 24.0563L82.2185 21.8091H83.1528H84.0872L84.0008 25.6617L83.9144 29.5145L85.3519 29.514C86.6282 29.5138 86.7639 29.4634 86.5632 29.0643C86.2079 28.3583 86.121 21.9082 86.4588 21.3044C86.7449 20.7923 86.6859 20.7818 83.5352 20.7818H80.3197L80.6022 21.5574ZM91.04 21.3216C91.2378 21.675 91.3105 23.1826 91.2509 25.6879L91.1597 29.5143L94.0146 29.514L96.8692 29.5138L97.0506 28.5887C97.1504 28.0799 97.1767 27.6107 97.1094 27.546C97.0418 27.4815 96.5225 27.6667 95.9555 27.9577C95.3885 28.2484 94.5904 28.4865 94.1826 28.4865C93.4545 28.4865 93.4406 28.4575 93.4406 26.9455V25.4046H94.7823C96.0121 25.4046 96.124 25.3543 96.124 24.8003C96.124 24.2299 96.0489 24.2029 94.7823 24.3193L93.4406 24.4425V22.9748V21.5071L94.581 21.6853C95.2082 21.7832 95.9719 22.0834 96.278 22.3523C96.9771 22.9661 97.1204 22.8307 96.9808 21.6886L96.8703 20.7818H93.8042C90.7719 20.7818 90.7416 20.7877 91.04 21.3216ZM110.256 21.7313C110.167 22.2537 110.145 22.729 110.206 22.7878C110.268 22.8469 110.642 22.6507 111.039 22.352C111.436 22.0533 112.052 21.8091 112.409 21.8091H113.059L112.973 25.212C112.926 27.0835 112.786 28.817 112.662 29.0643C112.461 29.4634 112.597 29.5138 113.873 29.514L115.311 29.5145L115.224 25.6617C115.142 21.9935 115.163 21.8091 115.658 21.8091C115.944 21.8091 116.484 22.0402 116.86 22.3227C117.79 23.0231 117.86 22.9874 117.86 21.8091V20.7818H114.138H110.417L110.256 21.7313ZM121.214 25.1478V29.5138H122.444H123.675L123.55 27.4592L123.426 25.4046H125.099H126.772L126.674 27.4592L126.577 29.5138H127.787H128.996V25.1478V20.7818H127.534C126.396 20.7818 126.143 20.8504 126.393 21.09C126.57 21.2595 126.715 22.0107 126.715 22.7593V24.1205H125.074H123.432L123.544 22.4511L123.655 20.7818H122.434H121.214V25.1478ZM133.558 25.1478V29.5138H134.56C135.669 29.5138 135.702 29.4781 138.022 25.6614C139.124 23.8483 139.198 23.7805 139.285 24.5057C139.335 24.9295 139.335 26.2298 139.285 27.395L139.193 29.5138H140.496C141.645 29.5138 141.773 29.4603 141.574 29.0643C141.218 28.3583 141.131 21.9082 141.469 21.3044C141.742 20.816 141.685 20.7818 140.592 20.7818H139.423L138.114 23.029C137.394 24.2651 136.583 25.6229 136.313 26.0467L135.821 26.8171L135.897 23.799L135.973 20.7808L134.765 20.7813L133.558 20.7818V25.1478ZM145.265 22.8711C145.517 25.6817 145.888 26.0472 148.486 26.0451L150.382 26.0433L150.28 27.7787L150.178 29.5138H151.394L152.61 29.514V25.148V20.7821H151.401L150.191 20.7818L150.287 22.8022C150.381 24.7818 150.369 24.8257 149.704 24.9855C148.863 25.1876 147.776 24.8155 147.548 24.2476C147.259 23.5252 147.36 21.4154 147.7 21.09C147.95 20.8504 147.694 20.7818 146.549 20.7818H145.077L145.265 22.8711ZM157.172 25.148V29.514H158.61C159.882 29.5138 160.022 29.4621 159.832 29.0643C159.714 28.817 159.57 27.8927 159.512 27.0097L159.407 25.4046H161.069H162.73L162.632 27.4592L162.535 29.5138H163.946C165.255 29.5138 165.726 29.2492 165.088 28.8717C164.687 28.6344 164.736 21.4783 165.142 21.09C165.392 20.8504 165.136 20.7818 163.989 20.7818H162.513L162.625 22.4511L162.736 24.1205H161.094H159.453V22.9478C159.453 22.303 159.578 21.5518 159.731 21.2785C159.989 20.8165 159.909 20.7818 158.59 20.7821L157.172 20.7823V25.148ZM169.516 25.148V29.514H170.481C171.66 29.5138 171.868 29.2988 173.711 26.1751C175.349 23.3996 175.413 23.451 175.243 27.395L175.151 29.5138L176.359 29.514H177.566V25.148V20.7823L176.493 20.7851L175.419 20.7882L173.675 23.8025C171.704 27.2083 171.67 27.1939 171.84 23.0295L171.931 20.7815L170.723 20.7818L169.516 20.7823V25.148ZM181.98 21.1511C182.207 21.4126 182.275 22.6897 182.214 25.5176L182.128 29.5145L183.337 29.514L184.547 29.5138L184.455 27.395L184.364 25.2762L185.907 27.395L187.45 29.5138H188.747C190.171 29.5138 190.326 29.3237 189.491 28.6005C188.829 28.0268 186.287 24.7805 186.287 24.508C186.287 24.2302 188.799 21.2975 189.038 21.2965C189.149 21.296 189.239 21.1799 189.239 21.0386C189.239 20.8974 188.847 20.7826 188.367 20.7836C187.687 20.7849 187.362 20.969 186.892 21.6183C186.561 22.0764 185.861 22.9134 185.338 23.4784L184.386 24.5057L184.473 22.6438L184.561 20.7818H183.11C181.879 20.7818 181.708 20.8375 181.98 21.1511ZM42.2541 26.6982L38.9669 30.4905V34.0991V37.7077L37.2898 37.784L35.6126 37.8605L35.5337 39.7224L35.4548 41.5844H33.8684H32.282L32.2031 43.4464L32.1242 45.3083L30.447 45.3849L28.7699 45.4611V47.2468V49.0323H27.0256H25.2814V50.9641C25.2814 52.872 25.2677 52.9103 24.1699 54.05C23.5587 54.6847 22.5926 55.4546 22.0232 55.761L20.9879 56.3178V58.2142C20.9879 60.0607 21.0038 60.1057 21.5917 59.9362C23.8981 59.271 28.8769 56.0391 32.1153 53.1055C39.794 46.1489 44.0823 37.3055 45.4055 25.6987C45.5722 24.2361 45.6709 23.0092 45.625 22.9725C45.5789 22.9358 44.0622 24.6123 42.2541 26.6982ZM20.7995 24.3799C26.6204 26.1006 28.2356 32.6 23.9483 37.0512C22.1888 38.8783 20.1936 39.478 18.4312 38.7093C17.0621 38.1124 16.9628 37.5518 16.9628 30.4255V23.8637H18.008C18.5828 23.8637 19.8389 24.0961 20.7995 24.3799Z" fill="#F0EAD2"/>
</svg>
