<svg width="709" height="234" viewBox="0 0 709 234" fill="none" xmlns="http://www.w3.org/2000/svg">
<path fill-rule="evenodd" clip-rule="evenodd" d="M3.77 3.861L0 7.722L10.183 12.952C15.784 15.829 22.919 20.108 26.04 22.461C35.942 29.928 35.213 24.364 35.213 92.422C35.213 145.285 35.028 152.506 33.599 155.518C32.711 157.388 31.558 158.919 31.036 158.919C30.514 158.919 30.227 160.381 30.4 162.169L30.713 165.419L53.312 165.687L75.91 165.956L98.812 139.24C128.787 104.272 125.643 108.652 123.602 104.705C119.263 96.314 111.064 89.359 101.938 86.328L96.852 84.638L101.282 82.382C103.719 81.14 107.753 78.326 110.247 76.127C124.534 63.53 125.882 39.983 112.983 28.33C103.947 20.167 93.224 17.87 65.46 18.151C45.959 18.349 45.62 18.316 38.213 15.509C30.353 12.53 18.558 6.763 11.626 2.508L7.539 0L3.77 3.861ZM556.317 16.589C554.913 19.672 555.059 19.869 559.504 20.872C563.07 21.676 568.884 20.267 571.722 17.911C574.409 15.681 573.301 15.101 567.379 15.638C564.027 15.942 560.683 15.706 559.521 15.084C557.797 14.161 557.322 14.385 556.317 16.589ZM140.213 21.114C140.213 23.238 141.135 25.272 142.963 27.178L145.713 30.046L146.213 57.483L146.713 84.92L158.463 71.693L170.213 58.466V47.693V36.919H185.713H201.213V90.969C201.213 137.461 201 145.431 199.687 147.969C198.848 149.591 197.754 150.919 197.255 150.919C195.926 150.919 194.979 154.605 195.713 156.919C196.289 158.735 197.226 158.919 205.902 158.919C218.282 158.919 234.135 161.305 244.761 164.769L253.206 167.521L256.391 164.235C258.143 162.428 259.382 160.757 259.145 160.522C258.907 160.288 253.988 158.293 248.213 156.089C242.438 153.885 236.909 151.766 235.926 151.379C231.29 149.556 231.213 148.52 231.219 88.719C231.225 39.604 231.425 32.036 232.789 29.42C233.649 27.77 234.997 26.06 235.783 25.62C236.592 25.167 237.213 23.321 237.213 21.369V17.919H188.713H140.213V21.114ZM296.713 40.796V57.919H304.443C314.459 57.919 319.931 55.839 321.822 51.312C323.58 47.106 322.351 43.581 318.258 41.093L315.253 39.265L318.289 37.021C320.858 35.121 321.278 34.212 321.019 31.105C320.61 26.2 317.446 24.757 305.764 24.146L296.713 23.673V40.796ZM336.713 40.918V57.917L347.854 57.918L358.994 57.919L359.462 54.169C359.719 52.107 359.803 50.267 359.65 50.081C359.496 49.895 358.097 50.64 356.542 51.737C354.986 52.834 352.026 54.02 349.963 54.371L346.213 55.01V48.334V41.659L350.713 42.166C354.927 42.641 355.213 42.522 355.213 40.296C355.213 38.145 354.784 37.919 350.713 37.919H346.213V32.919C346.213 27.944 346.229 27.919 349.463 27.923C351.251 27.925 354.175 28.818 355.963 29.908L359.213 31.89V27.904V23.919L347.963 23.918H336.713V40.918ZM380.607 25.828C370.875 30.247 369.01 48.894 377.621 55.668C380.823 58.187 386.818 59.331 392.121 58.435C397.155 57.584 398.826 56.178 399.564 52.169C400.292 48.22 398.8 47.903 396.034 51.419C393.327 54.86 387.12 54.917 383.734 51.531C379.205 47.001 379.193 35.391 383.712 30.514C387.054 26.909 392.294 26.935 395.154 30.572C397.539 33.603 397.957 33.45 398.801 29.228C399.352 26.476 399.098 26.074 396.162 25.051C391.416 23.396 385.287 23.702 380.607 25.828ZM412.713 40.918V57.917L423.858 57.918L435.003 57.919L435.384 53.919C435.594 51.719 435.623 49.919 435.449 49.919C435.275 49.919 433.913 50.777 432.423 51.826C430.932 52.874 428.026 54.02 425.963 54.371L422.213 55.01V48.334V41.659L426.713 42.166C430.927 42.641 431.213 42.522 431.213 40.296C431.213 38.145 430.784 37.919 426.713 37.919H422.213V32.919C422.213 27.944 422.229 27.919 425.463 27.923C427.251 27.925 430.175 28.818 431.963 29.908L435.213 31.89V27.904V23.919L423.963 23.918H412.713V40.918ZM452.213 24.86C452.213 25.378 452.727 26.118 453.354 26.506C454.987 27.515 453.702 45.072 451.714 48.917C450.83 50.627 449.358 51.919 448.294 51.919C446.447 51.919 445.213 53.754 445.213 56.501C445.213 58.923 451.54 58.264 454.063 55.579C456.946 52.51 458.023 48.488 458.833 37.759L459.5 28.919H463.412H467.324L467.003 41.669C466.826 48.682 466.303 55.207 465.84 56.169C465.093 57.723 465.6 57.919 470.356 57.918L475.713 57.917V40.918V23.918H463.963C457.288 23.919 452.213 24.325 452.213 24.86ZM493.053 39.457C493.298 50.605 493.051 55.409 492.181 56.458C491.133 57.72 492.144 57.919 499.623 57.919C513.234 57.919 519.222 54.11 517.771 46.376C516.952 42.011 513.03 39.357 505.964 38.385L501 37.702L501.389 30.81L501.778 23.919L497.246 23.918L492.713 23.917L493.053 39.457ZM521.713 40.918V57.918H526.213L530.713 57.919V40.919V23.919H526.213L521.713 23.918V40.918ZM547.713 40.964V58.01L551.713 57.714C555.643 57.424 555.82 57.239 561.85 47.116C565.225 41.449 568.303 36.499 568.691 36.116C569.078 35.733 569.242 40.482 569.054 46.67L568.713 57.921L573.498 57.92C578.051 57.919 578.229 57.817 577.159 55.817C576.422 54.441 576.151 48.571 576.373 38.816L576.713 23.917L573.213 23.927C569.787 23.936 569.565 24.196 562.713 36.178L555.713 48.419L555.423 39.002C555.264 33.823 555.578 28.311 556.121 26.752L557.109 23.919H552.411H547.713V40.964ZM311.631 28.526C315.458 29.995 312.475 37.269 307.713 38.079C305.953 38.378 305.677 37.788 305.411 33.169C305.123 28.171 305.227 27.919 307.579 27.919C308.938 27.919 310.761 28.192 311.631 28.526ZM84.066 31.343C91.494 35.184 94.727 42.582 93.948 53.955C92.815 70.479 83.623 80.78 68.402 82.583L63.213 83.198L63.228 58.308C63.237 44.619 63.574 32.931 63.978 32.334C66.484 28.631 77.748 28.076 84.066 31.343ZM311.633 44.035C315.206 46.845 314.922 51.681 311.058 53.839C307.028 56.091 305.213 54.059 305.213 47.297C305.213 42.715 305.489 41.919 307.078 41.919C308.104 41.919 310.154 42.871 311.633 44.035ZM507.269 43.763C511.818 47.447 509.208 55.493 503.72 54.707C501.994 54.459 501.671 53.545 501.415 48.169C501.148 42.551 501.313 41.919 503.054 41.919C504.12 41.919 506.016 42.749 507.269 43.763ZM131.972 113.669C66.972 188.097 66.067 189.159 64.54 192.742C61.907 198.924 65.182 203.919 71.868 203.919C77.434 203.919 80.466 201.2 80.022 196.61C79.764 193.946 79.249 193.366 76.903 193.097C75.357 192.92 73.433 193.321 72.628 193.989C70.267 195.949 69.808 194.247 71.838 191.066C72.869 189.451 78.213 182.952 83.713 176.624L93.713 165.119L93.995 176.519C94.386 192.368 96.213 191.25 96.213 175.162V162.404L101.713 156.098L107.213 149.791V161.355C107.213 168.398 107.604 172.919 108.213 172.919C108.827 172.919 109.213 168.055 109.213 160.328V147.738L113.834 142.328C116.376 139.353 118.851 136.919 119.334 136.919C119.818 136.919 120.213 141.869 120.213 147.919C120.213 154.586 120.607 158.919 121.213 158.919C121.827 158.919 122.228 153.81 122.251 145.669L122.289 132.419L127.251 127.099L132.213 121.779V132.849C132.213 139.562 132.607 143.919 133.213 143.919C133.825 143.919 134.213 139.152 134.213 131.619V119.32L157.2 93.434C178.923 68.97 180.097 67.448 178.545 65.733C177.642 64.735 176.569 63.919 176.161 63.919C175.753 63.919 155.868 86.307 131.972 113.669ZM384.713 81.422C379.889 83.129 376.667 86.624 375.265 91.671C373.087 99.514 374.577 106.977 379.206 111.412C381.654 113.758 383.303 114.37 388.106 114.718C396.436 115.32 400.808 113.693 401.608 109.693C402.438 105.543 400.932 104.172 398.919 107.245C395.781 112.035 386.891 111.429 384.118 106.236C382.076 102.413 382.322 91.928 384.532 88.554C388.04 83.202 394.951 82.602 397.609 87.419C398.216 88.519 398.85 89.631 399.017 89.89C399.651 90.87 401.183 87.312 401.198 84.827C401.21 82.68 400.55 82.037 397.347 81.077C392.397 79.594 389.669 79.669 384.713 81.422ZM300.37 83.939C301.756 87.915 300.034 103.017 297.807 106.417C296.905 107.793 295.277 108.919 294.19 108.919C292.741 108.919 292.213 109.596 292.213 111.45C292.213 114.774 294.61 115.577 298.702 113.626C302.84 111.652 304.783 106.135 305.729 93.669L306.393 84.919H309.875H313.357L313.035 99.92L312.713 114.922L318.07 114.92C322.826 114.919 323.332 114.723 322.584 113.169C321.26 110.42 320.936 85.305 322.195 82.954C323.261 80.96 323.041 80.919 311.3 80.919H299.317L300.37 83.939ZM339.267 83.021C340.004 84.397 340.275 90.267 340.053 100.022L339.713 114.921L350.352 114.92L360.99 114.919L361.666 111.317C362.038 109.336 362.136 107.509 361.885 107.257C361.633 107.006 359.698 107.727 357.585 108.86C355.472 109.992 352.498 110.919 350.978 110.919C348.265 110.919 348.213 110.806 348.213 104.919V98.919H353.213C357.796 98.919 358.213 98.723 358.213 96.566C358.213 94.345 357.933 94.24 353.213 94.693L348.213 95.173V89.458V83.743L352.463 84.437C354.8 84.818 357.646 85.987 358.787 87.034C361.392 89.424 361.926 88.897 361.406 84.45L360.994 80.919H349.568C338.268 80.919 338.155 80.942 339.267 83.021ZM410.875 84.616C410.545 86.65 410.462 88.501 410.691 88.73C410.92 88.96 412.317 88.196 413.795 87.033C415.273 85.87 417.571 84.919 418.902 84.919H421.321L421.003 98.169C420.828 105.456 420.306 112.206 419.842 113.169C419.094 114.723 419.6 114.919 424.356 114.92L429.713 114.922L429.391 99.92C429.084 85.637 429.162 84.919 431.006 84.919C432.072 84.919 434.087 85.819 435.486 86.919C438.953 89.646 439.213 89.507 439.213 84.919V80.919H425.344H411.475L410.875 84.616ZM451.713 97.919V114.919H456.298H460.882L460.419 106.919L459.956 98.919H466.19H472.425L472.061 106.919L471.698 114.919H476.206H480.713V97.919V80.919H475.263C471.024 80.919 470.08 81.186 471.013 82.119C471.673 82.779 472.213 85.704 472.213 88.619V93.919H466.097H459.98L460.394 87.419L460.808 80.919H456.26H451.713V97.919ZM497.713 97.919V114.919H501.449C505.582 114.919 505.702 114.78 514.349 99.919C518.457 92.859 518.733 92.595 519.054 95.419C519.242 97.069 519.242 102.132 519.054 106.669L518.713 114.919H523.57C527.85 114.919 528.327 114.711 527.584 113.169C526.26 110.42 525.936 85.305 527.195 82.954C528.212 81.052 527.998 80.919 523.927 80.919H519.571L514.692 89.669C512.008 94.482 508.987 99.769 507.979 101.419L506.146 104.419L506.429 92.667L506.713 80.915L502.213 80.917L497.713 80.919V97.919ZM541.339 89.054C542.279 99.998 543.662 101.421 553.342 101.413L560.411 101.406L560.029 108.163L559.648 114.919H564.18L568.713 114.92V97.92V80.92H564.206L559.698 80.919L560.055 88.786C560.405 96.494 560.362 96.665 557.882 97.287C554.749 98.074 550.698 96.625 549.849 94.414C548.77 91.601 549.146 83.386 550.413 82.119C551.346 81.186 550.394 80.919 546.126 80.919H540.64L541.339 89.054ZM585.713 97.92V114.92H591.07C595.811 114.919 596.335 114.718 595.625 113.169C595.184 112.206 594.648 108.607 594.433 105.169L594.042 98.919H600.234H606.425L606.061 106.919L605.698 114.919H610.956C615.836 114.919 617.591 113.889 615.213 112.419C613.717 111.495 613.901 83.631 615.413 82.119C616.346 81.186 615.391 80.919 611.116 80.919H605.618L606.032 87.419L606.446 93.919H600.329H594.213V89.353C594.213 86.842 594.679 83.917 595.248 82.853C596.211 81.054 595.914 80.919 590.998 80.92L585.713 80.921V97.92ZM631.713 97.92V114.92H635.308C639.704 114.919 640.479 114.082 647.348 101.919C653.451 91.112 653.69 91.312 653.054 106.669L652.713 114.919L657.213 114.92H661.713V97.92V80.921L657.713 80.932L653.713 80.944L647.213 92.681C639.869 105.942 639.742 105.886 640.373 89.671L640.713 80.918L636.213 80.919L631.713 80.921V97.92ZM678.162 82.357C679.006 83.375 679.262 88.348 679.034 99.359L678.713 114.922L683.22 114.92L687.728 114.919L687.386 106.669L687.044 98.419L692.794 106.669L698.545 114.919H703.379C708.687 114.919 709.263 114.179 706.152 111.363C703.683 109.129 694.213 96.489 694.213 95.428C694.213 94.346 703.573 82.927 704.463 82.923C704.876 82.921 705.213 82.469 705.213 81.919C705.213 81.369 703.751 80.922 701.963 80.926C699.43 80.931 698.217 81.648 696.467 84.176C695.232 85.96 692.625 89.219 690.675 91.419L687.128 95.419L687.453 88.169L687.778 80.919H682.373C677.785 80.919 677.149 81.136 678.162 82.357ZM157.463 103.956L145.213 118.722V132.773V146.824L138.963 147.121L132.713 147.419L132.419 154.669L132.125 161.919H126.213H120.301L120.007 169.169L119.713 176.419L113.463 176.717L107.213 177.014V183.967V190.919H100.713H94.213V198.441C94.213 205.87 94.162 206.019 90.071 210.457C87.793 212.928 84.193 215.926 82.071 217.119L78.213 219.287V226.671C78.213 233.861 78.272 234.036 80.463 233.376C89.058 230.786 107.612 218.202 119.68 206.779C148.295 179.692 164.276 145.258 169.207 100.064C169.828 94.369 170.196 89.592 170.025 89.449C169.853 89.306 164.201 95.834 157.463 103.956ZM77.511 94.929C99.203 101.629 105.222 126.936 89.245 144.268C82.688 151.382 75.253 153.717 68.685 150.724C63.583 148.4 63.213 146.217 63.213 118.469V92.919H67.108C69.25 92.919 73.931 93.824 77.511 94.929Z" fill="url(#paint0_linear_3_9)"/>
<path d="M294 154H580V155H294V154Z" fill="#FA6210"/>
<path d="M190.104 201.4V221H186.52V204.48H176.356V221H172.772V201.4H190.104ZM208.511 205.88C210.06 205.88 211.413 206.197 212.571 206.832C213.747 207.467 214.652 208.363 215.287 209.52C215.94 210.677 216.267 212.021 216.267 213.552C216.267 215.064 215.959 216.399 215.343 217.556C214.727 218.713 213.859 219.609 212.739 220.244C211.637 220.879 210.359 221.196 208.903 221.196C206.831 221.196 205.207 220.533 204.031 219.208V226.432H200.503V213.58C200.503 212.068 200.839 210.733 201.511 209.576C202.183 208.4 203.116 207.495 204.311 206.86C205.524 206.207 206.924 205.88 208.511 205.88ZM208.371 218.228C209.677 218.228 210.741 217.799 211.563 216.94C212.384 216.063 212.795 214.933 212.795 213.552C212.795 212.171 212.384 211.041 211.563 210.164C210.741 209.287 209.677 208.848 208.371 208.848C207.045 208.848 205.981 209.277 205.179 210.136C204.376 210.995 203.975 212.124 203.975 213.524C203.975 214.924 204.376 216.063 205.179 216.94C206 217.799 207.064 218.228 208.371 218.228ZM232.311 221.196C230.799 221.196 229.436 220.869 228.223 220.216C227.01 219.563 226.058 218.657 225.367 217.5C224.695 216.324 224.359 214.999 224.359 213.524C224.359 212.049 224.695 210.733 225.367 209.576C226.058 208.419 227.01 207.513 228.223 206.86C229.436 206.207 230.799 205.88 232.311 205.88C233.842 205.88 235.214 206.207 236.427 206.86C237.64 207.513 238.583 208.419 239.255 209.576C239.946 210.733 240.291 212.049 240.291 213.524C240.291 214.999 239.946 216.324 239.255 217.5C238.583 218.657 237.64 219.563 236.427 220.216C235.214 220.869 233.842 221.196 232.311 221.196ZM232.311 218.2C233.599 218.2 234.663 217.771 235.503 216.912C236.343 216.053 236.763 214.924 236.763 213.524C236.763 212.124 236.343 210.995 235.503 210.136C234.663 209.277 233.599 208.848 232.311 208.848C231.023 208.848 229.959 209.277 229.119 210.136C228.298 210.995 227.887 212.124 227.887 213.524C227.887 214.924 228.298 216.053 229.119 216.912C229.959 217.771 231.023 218.2 232.311 218.2ZM256.433 221.196C254.883 221.196 253.493 220.869 252.261 220.216C251.029 219.563 250.067 218.657 249.377 217.5C248.686 216.324 248.341 214.999 248.341 213.524C248.341 212.049 248.686 210.733 249.377 209.576C250.067 208.419 251.019 207.513 252.233 206.86C253.465 206.207 254.865 205.88 256.433 205.88C257.907 205.88 259.195 206.179 260.297 206.776C261.417 207.373 262.257 208.232 262.817 209.352L260.129 210.92C259.699 210.229 259.158 209.716 258.505 209.38C257.87 209.025 257.17 208.848 256.405 208.848C255.098 208.848 254.015 209.277 253.157 210.136C252.298 210.976 251.869 212.105 251.869 213.524C251.869 214.943 252.289 216.081 253.129 216.94C253.987 217.78 255.079 218.2 256.405 218.2C257.17 218.2 257.87 218.032 258.505 217.696C259.158 217.341 259.699 216.819 260.129 216.128L262.817 217.696C262.238 218.816 261.389 219.684 260.269 220.3C259.167 220.897 257.889 221.196 256.433 221.196ZM290.65 205.88C292.536 205.88 294.029 206.431 295.13 207.532C296.232 208.615 296.782 210.248 296.782 212.432V221H293.282V212.88C293.282 211.573 292.993 210.593 292.414 209.94C291.836 209.268 291.005 208.932 289.922 208.932C288.746 208.932 287.804 209.324 287.094 210.108C286.385 210.873 286.03 211.975 286.03 213.412V221H282.53V212.88C282.53 211.573 282.241 210.593 281.662 209.94C281.084 209.268 280.253 208.932 279.17 208.932C277.976 208.932 277.024 209.315 276.314 210.08C275.624 210.845 275.278 211.956 275.278 213.412V221H271.778V206.048H275.11V207.952C275.67 207.28 276.37 206.767 277.21 206.412C278.05 206.057 278.984 205.88 280.01 205.88C281.13 205.88 282.12 206.095 282.978 206.524C283.856 206.935 284.546 207.551 285.05 208.372C285.666 207.588 286.46 206.981 287.43 206.552C288.401 206.104 289.474 205.88 290.65 205.88ZM313.635 221.196C312.123 221.196 310.76 220.869 309.547 220.216C308.333 219.563 307.381 218.657 306.691 217.5C306.019 216.324 305.683 214.999 305.683 213.524C305.683 212.049 306.019 210.733 306.691 209.576C307.381 208.419 308.333 207.513 309.547 206.86C310.76 206.207 312.123 205.88 313.635 205.88C315.165 205.88 316.537 206.207 317.751 206.86C318.964 207.513 319.907 208.419 320.579 209.576C321.269 210.733 321.615 212.049 321.615 213.524C321.615 214.999 321.269 216.324 320.579 217.5C319.907 218.657 318.964 219.563 317.751 220.216C316.537 220.869 315.165 221.196 313.635 221.196ZM313.635 218.2C314.923 218.2 315.987 217.771 316.827 216.912C317.667 216.053 318.087 214.924 318.087 213.524C318.087 212.124 317.667 210.995 316.827 210.136C315.987 209.277 314.923 208.848 313.635 208.848C312.347 208.848 311.283 209.277 310.443 210.136C309.621 210.995 309.211 212.124 309.211 213.524C309.211 214.924 309.621 216.053 310.443 216.912C311.283 217.771 312.347 218.2 313.635 218.2ZM350.787 215.008H348.071V221H344.571V206.048H348.071V212.096H350.871L355.295 206.048H359.047L353.615 213.244L359.411 221H355.295L350.787 215.008ZM392.213 213.216C394.061 213.776 394.985 214.971 394.985 216.8C394.985 218.144 394.481 219.18 393.473 219.908C392.465 220.636 390.972 221 388.993 221H381.377V206.048H388.685C390.515 206.048 391.943 206.384 392.969 207.056C393.996 207.728 394.509 208.68 394.509 209.912C394.509 210.677 394.304 211.34 393.893 211.9C393.501 212.46 392.941 212.899 392.213 213.216ZM384.709 212.292H388.377C390.188 212.292 391.093 211.667 391.093 210.416C391.093 209.203 390.188 208.596 388.377 208.596H384.709V212.292ZM388.713 218.452C390.636 218.452 391.597 217.827 391.597 216.576C391.597 215.923 391.373 215.437 390.925 215.12C390.477 214.784 389.777 214.616 388.825 214.616H384.709V218.452H388.713ZM411.649 218.228C413.273 218.228 414.627 217.687 415.709 216.604L417.557 218.76C416.904 219.563 416.064 220.169 415.037 220.58C414.011 220.991 412.853 221.196 411.565 221.196C409.923 221.196 408.476 220.869 407.225 220.216C405.975 219.563 405.004 218.657 404.313 217.5C403.641 216.324 403.305 214.999 403.305 213.524C403.305 212.068 403.632 210.761 404.285 209.604C404.957 208.428 405.872 207.513 407.029 206.86C408.205 206.207 409.531 205.88 411.005 205.88C412.405 205.88 413.675 206.188 414.813 206.804C415.971 207.401 416.885 208.269 417.557 209.408C418.229 210.528 418.565 211.844 418.565 213.356L407.113 215.596C407.468 216.455 408.037 217.108 408.821 217.556C409.605 218.004 410.548 218.228 411.649 218.228ZM411.005 208.68C409.717 208.68 408.672 209.1 407.869 209.94C407.085 210.78 406.693 211.909 406.693 213.328V213.356L415.149 211.732C414.907 210.817 414.412 210.08 413.665 209.52C412.937 208.96 412.051 208.68 411.005 208.68ZM435.256 205.88C436.805 205.88 438.159 206.197 439.316 206.832C440.492 207.467 441.397 208.363 442.032 209.52C442.685 210.677 443.012 212.021 443.012 213.552C443.012 215.064 442.704 216.399 442.088 217.556C441.472 218.713 440.604 219.609 439.484 220.244C438.383 220.879 437.104 221.196 435.648 221.196C433.576 221.196 431.952 220.533 430.776 219.208V226.432H427.248V213.58C427.248 212.068 427.584 210.733 428.256 209.576C428.928 208.4 429.861 207.495 431.056 206.86C432.269 206.207 433.669 205.88 435.256 205.88ZM435.116 218.228C436.423 218.228 437.487 217.799 438.308 216.94C439.129 216.063 439.54 214.933 439.54 213.552C439.54 212.171 439.129 211.041 438.308 210.164C437.487 209.287 436.423 208.848 435.116 208.848C433.791 208.848 432.727 209.277 431.924 210.136C431.121 210.995 430.72 212.124 430.72 213.524C430.72 214.924 431.121 216.063 431.924 216.94C432.745 217.799 433.809 218.228 435.116 218.228ZM474.428 206.048V221H452.392V206.048H455.892V218.032H461.688V206.048H465.188V218.032H470.928V206.048H474.428ZM499.183 206.048V221H495.851V219.096C495.291 219.768 494.591 220.291 493.751 220.664C492.929 221.019 492.033 221.196 491.063 221.196C489.065 221.196 487.488 220.645 486.331 219.544C485.173 218.424 484.595 216.772 484.595 214.588V206.048H488.095V214.112C488.095 215.456 488.393 216.464 488.991 217.136C489.607 217.789 490.484 218.116 491.623 218.116C492.855 218.116 493.835 217.733 494.563 216.968C495.309 216.184 495.683 215.064 495.683 213.608V206.048H499.183ZM509.789 206.048H513.289V212.124H520.821V206.048H524.321V221H520.821V215.092H513.289V221H509.789V206.048ZM549.452 206.048V221H546.12V219.068C545.541 219.777 544.823 220.309 543.964 220.664C543.124 221.019 542.191 221.196 541.164 221.196C539.708 221.196 538.401 220.879 537.244 220.244C536.105 219.609 535.209 218.713 534.556 217.556C533.921 216.399 533.604 215.055 533.604 213.524C533.604 211.993 533.921 210.659 534.556 209.52C535.209 208.363 536.105 207.467 537.244 206.832C538.401 206.197 539.708 205.88 541.164 205.88C542.135 205.88 543.021 206.048 543.824 206.384C544.645 206.72 545.355 207.215 545.952 207.868V206.048H549.452ZM541.556 218.2C542.844 218.2 543.908 217.771 544.748 216.912C545.588 216.053 546.008 214.924 546.008 213.524C546.008 212.124 545.588 210.995 544.748 210.136C543.908 209.277 542.844 208.848 541.556 208.848C540.268 208.848 539.204 209.277 538.364 210.136C537.543 210.995 537.132 212.124 537.132 213.524C537.132 214.924 537.543 216.053 538.364 216.912C539.204 217.771 540.268 218.2 541.556 218.2ZM574.667 221V211.088L569.627 219.432H568.115L563.159 211.06V221H559.967V206.048H563.635L568.955 215.4L574.527 206.048H577.803L577.831 221H574.667Z" fill="#531515"/>
<defs>
<linearGradient id="paint0_linear_3_9" x1="0" y1="116.812" x2="708.049" y2="116.812" gradientUnits="userSpaceOnUse">
<stop offset="0.0520833" stop-color="#340021"/>
<stop offset="0.276042" stop-color="#963A27"/>
<stop offset="1" stop-color="#FB752E"/>
</linearGradient>
</defs>
</svg>
