<svg width="720" height="233" viewBox="0 0 720 233" fill="none" xmlns="http://www.w3.org/2000/svg">
<path d="M300 147H587V154H300V147Z" fill="#96FFB5"/>
<path d="M195.573 192.714V212.314H191.989V195.794H181.825V212.314H178.241V192.714H195.573ZM213.979 197.194C215.529 197.194 216.882 197.511 218.039 198.146C219.215 198.781 220.121 199.677 220.755 200.834C221.409 201.991 221.735 203.335 221.735 204.866C221.735 206.378 221.427 207.713 220.811 208.87C220.195 210.027 219.327 210.923 218.207 211.558C217.106 212.193 215.827 212.51 214.371 212.51C212.299 212.51 210.675 211.847 209.499 210.522V217.746H205.971V204.894C205.971 203.382 206.307 202.047 206.979 200.89C207.651 199.714 208.585 198.809 209.779 198.174C210.993 197.521 212.393 197.194 213.979 197.194ZM213.839 209.542C215.146 209.542 216.21 209.113 217.031 208.254C217.853 207.377 218.263 206.247 218.263 204.866C218.263 203.485 217.853 202.355 217.031 201.478C216.21 200.601 215.146 200.162 213.839 200.162C212.514 200.162 211.45 200.591 210.647 201.45C209.845 202.309 209.443 203.438 209.443 204.838C209.443 206.238 209.845 207.377 210.647 208.254C211.469 209.113 212.533 209.542 213.839 209.542ZM237.78 212.51C236.268 212.51 234.905 212.183 233.692 211.53C232.478 210.877 231.526 209.971 230.836 208.814C230.164 207.638 229.828 206.313 229.828 204.838C229.828 203.363 230.164 202.047 230.836 200.89C231.526 199.733 232.478 198.827 233.692 198.174C234.905 197.521 236.268 197.194 237.78 197.194C239.31 197.194 240.682 197.521 241.896 198.174C243.109 198.827 244.052 199.733 244.724 200.89C245.414 202.047 245.76 203.363 245.76 204.838C245.76 206.313 245.414 207.638 244.724 208.814C244.052 209.971 243.109 210.877 241.896 211.53C240.682 212.183 239.31 212.51 237.78 212.51ZM237.78 209.514C239.068 209.514 240.132 209.085 240.972 208.226C241.812 207.367 242.232 206.238 242.232 204.838C242.232 203.438 241.812 202.309 240.972 201.45C240.132 200.591 239.068 200.162 237.78 200.162C236.492 200.162 235.428 200.591 234.588 201.45C233.766 202.309 233.356 203.438 233.356 204.838C233.356 206.238 233.766 207.367 234.588 208.226C235.428 209.085 236.492 209.514 237.78 209.514ZM261.901 212.51C260.352 212.51 258.961 212.183 257.729 211.53C256.497 210.877 255.536 209.971 254.845 208.814C254.155 207.638 253.809 206.313 253.809 204.838C253.809 203.363 254.155 202.047 254.845 200.89C255.536 199.733 256.488 198.827 257.701 198.174C258.933 197.521 260.333 197.194 261.901 197.194C263.376 197.194 264.664 197.493 265.765 198.09C266.885 198.687 267.725 199.546 268.285 200.666L265.597 202.234C265.168 201.543 264.627 201.03 263.973 200.694C263.339 200.339 262.639 200.162 261.873 200.162C260.567 200.162 259.484 200.591 258.625 201.45C257.767 202.29 257.337 203.419 257.337 204.838C257.337 206.257 257.757 207.395 258.597 208.254C259.456 209.094 260.548 209.514 261.873 209.514C262.639 209.514 263.339 209.346 263.973 209.01C264.627 208.655 265.168 208.133 265.597 207.442L268.285 209.01C267.707 210.13 266.857 210.998 265.737 211.614C264.636 212.211 263.357 212.51 261.901 212.51ZM296.119 197.194C298.004 197.194 299.497 197.745 300.599 198.846C301.7 199.929 302.251 201.562 302.251 203.746V212.314H298.751V204.194C298.751 202.887 298.461 201.907 297.883 201.254C297.304 200.582 296.473 200.246 295.391 200.246C294.215 200.246 293.272 200.638 292.563 201.422C291.853 202.187 291.499 203.289 291.499 204.726V212.314H287.999V204.194C287.999 202.887 287.709 201.907 287.131 201.254C286.552 200.582 285.721 200.246 284.639 200.246C283.444 200.246 282.492 200.629 281.783 201.394C281.092 202.159 280.747 203.27 280.747 204.726V212.314H277.247V197.362H280.579V199.266C281.139 198.594 281.839 198.081 282.679 197.726C283.519 197.371 284.452 197.194 285.479 197.194C286.599 197.194 287.588 197.409 288.447 197.838C289.324 198.249 290.015 198.865 290.519 199.686C291.135 198.902 291.928 198.295 292.899 197.866C293.869 197.418 294.943 197.194 296.119 197.194ZM319.103 212.51C317.591 212.51 316.229 212.183 315.015 211.53C313.802 210.877 312.85 209.971 312.159 208.814C311.487 207.638 311.151 206.313 311.151 204.838C311.151 203.363 311.487 202.047 312.159 200.89C312.85 199.733 313.802 198.827 315.015 198.174C316.229 197.521 317.591 197.194 319.103 197.194C320.634 197.194 322.006 197.521 323.219 198.174C324.433 198.827 325.375 199.733 326.047 200.89C326.738 202.047 327.083 203.363 327.083 204.838C327.083 206.313 326.738 207.638 326.047 208.814C325.375 209.971 324.433 210.877 323.219 211.53C322.006 212.183 320.634 212.51 319.103 212.51ZM319.103 209.514C320.391 209.514 321.455 209.085 322.295 208.226C323.135 207.367 323.555 206.238 323.555 204.838C323.555 203.438 323.135 202.309 322.295 201.45C321.455 200.591 320.391 200.162 319.103 200.162C317.815 200.162 316.751 200.591 315.911 201.45C315.09 202.309 314.679 203.438 314.679 204.838C314.679 206.238 315.09 207.367 315.911 208.226C316.751 209.085 317.815 209.514 319.103 209.514ZM356.255 206.322H353.539V212.314H350.039V197.362H353.539V203.41H356.339L360.763 197.362H364.515L359.083 204.558L364.879 212.314H360.763L356.255 206.322ZM397.682 204.53C399.53 205.09 400.454 206.285 400.454 208.114C400.454 209.458 399.95 210.494 398.942 211.222C397.934 211.95 396.441 212.314 394.462 212.314H386.846V197.362H394.154C395.983 197.362 397.411 197.698 398.438 198.37C399.465 199.042 399.978 199.994 399.978 201.226C399.978 201.991 399.773 202.654 399.362 203.214C398.97 203.774 398.41 204.213 397.682 204.53ZM390.178 203.606H393.846C395.657 203.606 396.562 202.981 396.562 201.73C396.562 200.517 395.657 199.91 393.846 199.91H390.178V203.606ZM394.182 209.766C396.105 209.766 397.066 209.141 397.066 207.89C397.066 207.237 396.842 206.751 396.394 206.434C395.946 206.098 395.246 205.93 394.294 205.93H390.178V209.766H394.182ZM417.118 209.542C418.742 209.542 420.095 209.001 421.178 207.918L423.026 210.074C422.373 210.877 421.533 211.483 420.506 211.894C419.479 212.305 418.322 212.51 417.034 212.51C415.391 212.51 413.945 212.183 412.694 211.53C411.443 210.877 410.473 209.971 409.782 208.814C409.11 207.638 408.774 206.313 408.774 204.838C408.774 203.382 409.101 202.075 409.754 200.918C410.426 199.742 411.341 198.827 412.498 198.174C413.674 197.521 414.999 197.194 416.474 197.194C417.874 197.194 419.143 197.502 420.282 198.118C421.439 198.715 422.354 199.583 423.026 200.722C423.698 201.842 424.034 203.158 424.034 204.67L412.582 206.91C412.937 207.769 413.506 208.422 414.29 208.87C415.074 209.318 416.017 209.542 417.118 209.542ZM416.474 199.994C415.186 199.994 414.141 200.414 413.338 201.254C412.554 202.094 412.162 203.223 412.162 204.642V204.67L420.618 203.046C420.375 202.131 419.881 201.394 419.134 200.834C418.406 200.274 417.519 199.994 416.474 199.994ZM440.725 197.194C442.274 197.194 443.627 197.511 444.785 198.146C445.961 198.781 446.866 199.677 447.501 200.834C448.154 201.991 448.481 203.335 448.481 204.866C448.481 206.378 448.173 207.713 447.557 208.87C446.941 210.027 446.073 210.923 444.953 211.558C443.851 212.193 442.573 212.51 441.117 212.51C439.045 212.51 437.421 211.847 436.245 210.522V217.746H432.717V204.894C432.717 203.382 433.053 202.047 433.725 200.89C434.397 199.714 435.33 198.809 436.525 198.174C437.738 197.521 439.138 197.194 440.725 197.194ZM440.585 209.542C441.891 209.542 442.955 209.113 443.777 208.254C444.598 207.377 445.009 206.247 445.009 204.866C445.009 203.485 444.598 202.355 443.777 201.478C442.955 200.601 441.891 200.162 440.585 200.162C439.259 200.162 438.195 200.591 437.393 201.45C436.59 202.309 436.189 203.438 436.189 204.838C436.189 206.238 436.59 207.377 437.393 208.254C438.214 209.113 439.278 209.542 440.585 209.542ZM479.897 197.362V212.314H457.861V197.362H461.361V209.346H467.157V197.362H470.657V209.346H476.397V197.362H479.897ZM504.651 197.362V212.314H501.319V210.41C500.759 211.082 500.059 211.605 499.219 211.978C498.398 212.333 497.502 212.51 496.531 212.51C494.534 212.51 492.956 211.959 491.799 210.858C490.642 209.738 490.063 208.086 490.063 205.902V197.362H493.563V205.426C493.563 206.77 493.862 207.778 494.459 208.45C495.075 209.103 495.952 209.43 497.091 209.43C498.323 209.43 499.303 209.047 500.031 208.282C500.778 207.498 501.151 206.378 501.151 204.922V197.362H504.651ZM515.258 197.362H518.758V203.438H526.29V197.362H529.79V212.314H526.29V206.406H518.758V212.314H515.258V197.362ZM554.92 197.362V212.314H551.588V210.382C551.01 211.091 550.291 211.623 549.432 211.978C548.592 212.333 547.659 212.51 546.632 212.51C545.176 212.51 543.87 212.193 542.712 211.558C541.574 210.923 540.678 210.027 540.024 208.87C539.39 207.713 539.072 206.369 539.072 204.838C539.072 203.307 539.39 201.973 540.024 200.834C540.678 199.677 541.574 198.781 542.712 198.146C543.87 197.511 545.176 197.194 546.632 197.194C547.603 197.194 548.49 197.362 549.292 197.698C550.114 198.034 550.823 198.529 551.42 199.182V197.362H554.92ZM547.024 209.514C548.312 209.514 549.376 209.085 550.216 208.226C551.056 207.367 551.476 206.238 551.476 204.838C551.476 203.438 551.056 202.309 550.216 201.45C549.376 200.591 548.312 200.162 547.024 200.162C545.736 200.162 544.672 200.591 543.832 201.45C543.011 202.309 542.6 203.438 542.6 204.838C542.6 206.238 543.011 207.367 543.832 208.226C544.672 209.085 545.736 209.514 547.024 209.514ZM580.136 212.314V202.402L575.096 210.746H573.584L568.628 202.374V212.314H565.436V197.362H569.104L574.424 206.714L579.996 197.362H583.272L583.3 212.314H580.136Z" fill="#FFFEFE"/>
<g filter="url(#filter0_d_205_22)">
<path fill-rule="evenodd" clip-rule="evenodd" d="M8.78039 3.68541L5 7.37083L15.2111 12.363C20.8275 15.1091 27.9822 19.1935 31.1118 21.4395C41.0411 28.567 40.31 23.256 40.31 88.2189C40.31 138.678 40.1245 145.57 38.6916 148.445C37.8012 150.23 36.645 151.692 36.1215 151.692C35.5981 151.692 35.3103 153.087 35.4838 154.794L35.7976 157.896L58.4589 158.152L81.1192 158.409L104.084 132.908C134.142 99.53 130.989 103.711 128.943 99.9433C124.592 91.9339 116.37 85.2952 107.219 82.402L102.119 80.7889L106.561 78.6355C109.005 77.45 113.05 74.764 115.551 72.665C129.877 60.6408 131.229 38.1647 118.294 27.0416C109.233 19.2499 98.4809 17.0573 70.6404 17.3255C51.0857 17.5145 50.7457 17.483 43.3183 14.8037C35.4367 11.9602 23.6091 6.45544 16.658 2.39394L12.5598 0L8.78039 3.68541ZM562.85 15.8346C561.442 18.7774 561.589 18.9654 566.046 19.9228C569.622 20.6902 575.452 19.3453 578.298 17.0965C580.992 14.9679 579.881 14.4142 573.943 14.9268C570.581 15.217 567.228 14.9917 566.063 14.398C564.334 13.517 563.858 13.7308 562.85 15.8346ZM145.599 20.1538C145.599 22.1812 146.524 24.1227 148.357 25.942L151.115 28.6796L151.616 54.8688L152.117 81.0581L163.9 68.4326L175.682 55.8071V45.5241V35.24H191.225H206.768V86.832C206.768 131.21 206.554 138.817 205.237 141.24C204.396 142.788 203.299 144.056 202.799 144.056C201.466 144.056 200.516 147.574 201.252 149.783C201.83 151.516 202.77 151.692 211.469 151.692C223.884 151.692 239.78 153.969 250.436 157.276L258.904 159.903L262.098 156.766C263.854 155.041 265.097 153.446 264.859 153.222C264.621 152.999 259.688 151.094 253.897 148.991C248.106 146.887 242.562 144.864 241.576 144.495C236.927 142.755 236.85 141.766 236.856 84.6843C236.862 37.8029 237.063 30.5791 238.431 28.0821C239.293 26.5071 240.645 24.8749 241.433 24.4549C242.244 24.0225 242.867 22.2604 242.867 20.3972V17.1041H194.233H145.599V20.1538ZM302.531 38.9407V55.285H310.282C320.326 55.285 325.813 53.2996 327.709 48.9785C329.472 44.9638 328.239 41.5991 324.135 39.2242L321.122 37.4793L324.166 35.3374C326.742 33.5238 327.163 32.6561 326.904 29.6904C326.494 25.0085 323.321 23.6311 311.607 23.0479L302.531 22.5964V38.9407ZM342.641 39.0572V55.2831L353.813 55.2841L364.983 55.285L365.453 51.7056C365.71 49.7373 365.795 47.981 365.641 47.8035C365.487 47.6259 364.084 48.337 362.525 49.3842C360.964 50.4313 357.996 51.5633 355.928 51.8984L352.167 52.5083V46.1359V39.7645L356.68 40.2484C360.905 40.7018 361.192 40.5882 361.192 38.4635C361.192 36.4103 360.762 36.1946 356.68 36.1946H352.167V31.4219C352.167 26.6732 352.183 26.6493 355.426 26.6531C357.219 26.6551 360.151 27.5074 361.944 28.5479L365.203 30.4397V26.635V22.8312L353.922 22.8303H342.641V39.0572ZM386.656 24.6534C376.897 28.8715 375.027 46.6704 383.662 53.1364C386.873 55.5408 392.884 56.6328 398.202 55.7775C403.25 54.9652 404.925 53.6232 405.665 49.7965C406.395 46.0271 404.899 45.7245 402.125 49.0806C399.411 52.3651 393.187 52.4195 389.792 49.1875C385.25 44.8635 385.238 33.7815 389.77 29.1263C393.121 25.6853 398.375 25.7101 401.243 29.1817C403.635 32.0748 404.054 31.9288 404.9 27.8988C405.453 25.2719 405.198 24.8882 402.254 23.9118C397.495 22.332 391.349 22.6241 386.656 24.6534ZM418.85 39.0572V55.2831L430.026 55.2841L441.202 55.285L441.584 51.4669C441.794 49.367 441.824 47.6488 441.649 47.6488C441.475 47.6488 440.109 48.4678 438.615 49.4691C437.12 50.4694 434.206 51.5633 432.137 51.8984L428.377 52.5083V46.1359V39.7645L432.889 40.2484C437.115 40.7018 437.401 40.5882 437.401 38.4635C437.401 36.4103 436.971 36.1946 432.889 36.1946H428.377V31.4219C428.377 26.6732 428.393 26.6493 431.636 26.6531C433.429 26.6551 436.361 27.5074 438.154 28.5479L441.412 30.4397V26.635V22.8312L430.131 22.8303H418.85V39.0572ZM458.459 23.7294C458.459 24.2239 458.975 24.9302 459.603 25.3006C461.241 26.2637 459.952 43.0223 457.959 46.6924C457.073 48.3246 455.596 49.5579 454.53 49.5579C452.677 49.5579 451.44 51.3094 451.44 53.9315C451.44 56.2434 457.784 55.6143 460.314 53.0514C463.205 50.122 464.285 46.2829 465.098 36.0418L465.766 27.6038H469.689H473.612L473.29 39.774C473.113 46.4681 472.588 52.6963 472.124 53.6146C471.375 55.0979 471.883 55.285 476.652 55.2841L482.024 55.2831V39.0572V22.8303H470.242C463.548 22.8312 458.459 23.2188 458.459 23.7294ZM499.412 37.6626C499.658 48.3036 499.41 52.8892 498.537 53.8905C497.487 55.0951 498.5 55.285 506 55.285C519.648 55.285 525.653 51.6492 524.198 44.267C523.377 40.1005 519.444 37.5672 512.358 36.6394L507.381 35.9874L507.771 29.4089L508.161 22.8312L503.616 22.8303L499.071 22.8293L499.412 37.6626ZM528.151 39.0572V55.2841H532.663L537.176 55.285V39.0581V22.8312H532.663L528.151 22.8303V39.0572ZM554.223 39.1011V55.3719L558.234 55.0893C562.174 54.8125 562.352 54.6359 568.398 44.9733C571.783 39.564 574.869 34.8391 575.258 34.4735C575.646 34.108 575.811 38.641 575.622 44.5476L575.28 55.2869L580.079 55.286C584.644 55.285 584.823 55.1876 583.75 53.2786C583.011 51.9652 582.739 46.3621 582.961 37.0508L583.302 22.8293L579.793 22.8389C576.357 22.8475 576.135 23.0956 569.264 34.5327L562.245 46.217L561.954 37.2283C561.794 32.2848 562.109 27.0235 562.654 25.5354L563.644 22.8312H558.933H554.223V39.1011ZM317.49 27.2287C321.327 28.6309 318.336 35.5741 313.561 36.3473C311.796 36.6327 311.519 36.0695 311.253 31.6606C310.964 26.8899 311.068 26.6493 313.427 26.6493C314.789 26.6493 316.617 26.9099 317.49 27.2287ZM89.2977 29.9176C96.7462 33.5839 99.9881 40.6455 99.2069 51.5013C98.0708 67.2738 88.8535 77.1064 73.5905 78.8274L68.3872 79.4144L68.4023 55.6563C68.4113 42.5899 68.7492 31.4334 69.1543 30.8635C71.6672 27.3289 82.9623 26.7992 89.2977 29.9176ZM317.492 42.0324C321.075 44.7146 320.79 49.3307 316.915 51.3906C312.874 53.5401 311.054 51.6006 311.054 45.1461C311.054 40.7724 311.331 40.0126 312.924 40.0126C313.953 40.0126 316.009 40.9214 317.492 42.0324ZM513.667 41.7728C518.229 45.2892 515.611 52.9693 510.108 52.2191C508.377 51.9824 508.054 51.1099 507.797 45.9784C507.529 40.6159 507.695 40.0126 509.44 40.0126C510.509 40.0126 512.411 40.8049 513.667 41.7728ZM137.336 108.5C72.1566 179.543 71.2491 180.557 69.7179 183.977C67.0776 189.878 70.3616 194.645 77.0661 194.645C82.6474 194.645 85.6878 192.05 85.2425 187.669C84.9838 185.126 84.4674 184.572 82.1149 184.316C80.5647 184.147 78.6354 184.529 77.8282 185.167C75.4607 187.038 75.0004 185.413 77.036 182.377C78.0698 180.835 83.4286 174.632 88.9437 168.592L98.9713 157.61L99.254 168.491C99.6461 183.62 101.478 182.553 101.478 167.196V155.018L106.993 148.999L112.508 142.979V154.017C112.508 160.74 112.901 165.055 113.511 165.055C114.127 165.055 114.514 160.412 114.514 153.037V141.019L119.148 135.855C121.697 133.016 124.179 130.692 124.663 130.692C125.148 130.692 125.544 135.417 125.544 141.192C125.544 147.556 125.939 151.692 126.547 151.692C127.163 151.692 127.565 146.815 127.588 139.044L127.626 126.397L132.602 121.319L137.577 116.241V126.807C137.577 133.215 137.972 137.374 138.58 137.374C139.194 137.374 139.583 132.824 139.583 125.633V113.894L162.633 89.1849C184.416 65.8334 185.593 64.3807 184.037 62.7437C183.132 61.791 182.056 61.0121 181.646 61.0121C181.237 61.0121 161.298 82.382 137.336 108.5ZM390.773 77.7192C385.936 79.3485 382.705 82.6846 381.299 87.5021C379.115 94.9884 380.609 102.112 385.251 106.345C387.706 108.585 389.359 109.169 394.176 109.501C402.529 110.076 406.913 108.523 407.715 104.704C408.547 100.743 407.037 99.4346 405.018 102.368C401.872 106.94 392.957 106.362 390.177 101.405C388.129 97.7556 388.376 87.7474 390.592 84.5268C394.109 79.4182 401.039 78.8455 403.705 83.4434C404.313 84.4934 404.949 85.5548 405.117 85.8021C405.752 86.7375 407.289 83.3413 407.304 80.9693C407.316 78.9199 406.654 78.3062 403.442 77.3898C398.478 75.9743 395.743 76.0459 390.773 77.7192ZM306.198 80.1217C307.588 83.9169 305.861 98.3321 303.628 101.577C302.723 102.891 301.091 103.966 300.001 103.966C298.548 103.966 298.018 104.612 298.018 106.382C298.018 109.554 300.422 110.321 304.525 108.459C308.675 106.574 310.623 101.308 311.572 89.4092L312.237 81.0571H315.729H319.221L318.898 95.3759L318.575 109.696L323.947 109.694C328.716 109.693 329.223 109.506 328.473 108.022C327.145 105.398 326.821 81.4256 328.083 79.1815C329.152 77.2782 328.931 77.239 317.158 77.239H305.142L306.198 80.1217ZM345.202 79.2454C345.941 80.5589 346.213 86.1619 345.99 95.4733L345.649 109.695L356.318 109.694L366.985 109.693L367.663 106.255C368.036 104.364 368.134 102.62 367.882 102.379C367.63 102.14 365.689 102.828 363.571 103.909C361.452 104.99 358.47 105.875 356.945 105.875C354.225 105.875 354.173 105.767 354.173 100.148V94.4205H359.186C363.782 94.4205 364.2 94.2334 364.2 92.1745C364.2 90.0545 363.919 89.9542 359.186 90.3866L354.173 90.8448V85.3897V79.9346L358.434 80.597C360.778 80.9607 363.632 82.0766 364.776 83.0759C367.388 85.3573 367.923 84.8542 367.402 80.6095L366.989 77.239H355.531C344.2 77.239 344.087 77.261 345.202 79.2454ZM417.007 80.7679C416.676 82.7094 416.593 84.4762 416.823 84.6948C417.053 84.9144 418.453 84.1851 419.935 83.075C421.418 81.9649 423.722 81.0571 425.057 81.0571H427.482L427.163 93.7046C426.988 100.66 426.464 107.103 425.999 108.022C425.249 109.506 425.756 109.693 430.526 109.694L435.897 109.696L435.574 95.3759C435.267 81.7425 435.345 81.0571 437.194 81.0571C438.263 81.0571 440.283 81.9162 441.686 82.9662C445.163 85.5692 445.423 85.4365 445.423 81.0571V77.239H431.516H417.609L417.007 80.7679ZM457.958 93.4659V109.693H462.556H467.152L466.688 102.057L466.224 94.4205H472.475H478.727L478.362 102.057L477.998 109.693H482.518H487.038V93.4659V77.239H481.573C477.322 77.239 476.376 77.4939 477.311 78.3845C477.973 79.0144 478.514 81.8064 478.514 84.5889V89.6478H472.382H466.248L466.663 83.4434L467.078 77.239H462.517H457.958V93.4659ZM504.085 93.4659V109.693H507.831C511.975 109.693 512.096 109.56 520.767 95.375C524.886 88.636 525.163 88.384 525.485 91.0796C525.673 92.6546 525.673 97.4873 525.485 101.818L525.143 109.693H530.013C534.305 109.693 534.783 109.494 534.038 108.022C532.71 105.398 532.385 81.4256 533.648 79.1815C534.668 77.366 534.453 77.239 530.371 77.239H526.003L521.111 85.5911C518.419 90.1852 515.39 95.2318 514.379 96.8068L512.541 99.6703L512.825 88.4528L513.11 77.2352L508.597 77.2371L504.085 77.239V93.4659ZM547.831 85.0041C548.774 95.4504 550.16 96.8087 559.867 96.801L566.956 96.7943L566.572 103.244L566.19 109.693H570.735L575.28 109.694V93.4669V77.24H570.761L566.241 77.239L566.599 84.7483C566.949 92.1057 566.906 92.269 564.42 92.8627C561.278 93.6139 557.216 92.2308 556.364 90.1203C555.282 87.4353 555.659 79.5938 556.93 78.3845C557.866 77.4939 556.911 77.239 552.631 77.239H547.13L547.831 85.0041ZM592.327 93.4669V109.694H597.699C602.453 109.693 602.978 109.501 602.267 108.022C601.824 107.103 601.287 103.668 601.071 100.386L600.679 94.4205H606.888H613.096L612.731 102.057L612.367 109.693H617.64C622.533 109.693 624.293 108.71 621.909 107.307C620.408 106.425 620.593 79.8277 622.109 78.3845C623.045 77.4939 622.087 77.239 617.8 77.239H612.287L612.702 83.4434L613.117 89.6478H606.984H600.851V85.2895C600.851 82.8927 601.318 80.1007 601.888 79.0851C602.854 77.3679 602.556 77.239 597.627 77.24L592.327 77.2409V93.4669ZM638.454 93.4669V109.694H642.059C646.467 109.693 647.244 108.894 654.132 97.284C660.252 86.9685 660.492 87.1594 659.854 101.818L659.512 109.693L664.024 109.694H668.537V93.4669V77.2409L664.526 77.2514L660.515 77.2629L653.997 88.4661C646.632 101.124 646.505 101.071 647.138 85.593L647.479 77.2381L642.966 77.239L638.454 77.2409V93.4669ZM685.031 78.6116C685.877 79.5833 686.134 84.3302 685.905 94.8404L685.584 109.696L690.103 109.694L694.623 109.693L694.28 101.818L693.937 93.9432L699.703 101.818L705.47 109.693H710.318C715.64 109.693 716.218 108.986 713.098 106.299C710.622 104.166 701.126 92.101 701.126 91.0882C701.126 90.0554 710.512 79.1557 711.405 79.1519C711.819 79.15 712.157 78.7185 712.157 78.1936C712.157 77.6686 710.691 77.2419 708.898 77.2457C706.358 77.2505 705.141 77.9349 703.387 80.3479C702.148 82.0508 699.534 85.1616 697.578 87.2615L694.022 91.0796L694.348 84.1593L694.674 77.239H689.254C684.653 77.239 684.015 77.4462 685.031 78.6116ZM162.897 99.2284L150.613 113.323V126.735V140.147L144.346 140.43L138.079 140.715L137.784 147.635L137.489 154.555H131.561H125.633L125.338 161.476L125.043 168.396L118.776 168.68L112.508 168.964V175.601V182.237H105.991H99.4726V189.416C99.4726 196.508 99.4215 196.65 95.3192 200.886C93.035 203.245 89.425 206.106 87.2972 207.245L83.4286 209.314V216.363C83.4286 223.226 83.4877 223.393 85.6848 222.763C94.3034 220.291 112.909 208.279 125.01 197.375C153.704 171.52 169.729 138.652 174.673 95.5134C175.296 90.0774 175.665 85.5176 175.494 85.3811C175.321 85.2446 169.654 91.4757 162.897 99.2284ZM82.7246 90.6119C104.476 97.0072 110.512 121.163 94.491 137.707C87.9159 144.498 80.4604 146.726 73.8743 143.87C68.7582 141.651 68.3872 139.567 68.3872 113.081V88.6933H72.2929C74.4408 88.6933 79.1347 89.5572 82.7246 90.6119Z" fill="white"/>
</g>
<defs>
<filter id="filter0_d_205_22" x="0" y="0" width="720" height="233" filterUnits="userSpaceOnUse" color-interpolation-filters="sRGB">
<feFlood flood-opacity="0" result="BackgroundImageFix"/>
<feColorMatrix in="SourceAlpha" type="matrix" values="0 0 0 0 0 0 0 0 0 0 0 0 0 0 0 0 0 0 127 0" result="hardAlpha"/>
<feOffset dy="5"/>
<feGaussianBlur stdDeviation="2.5"/>
<feComposite in2="hardAlpha" operator="out"/>
<feColorMatrix type="matrix" values="0 0 0 0 1 0 0 0 0 1 0 0 0 0 1 0 0 0 0.25 0"/>
<feBlend mode="normal" in2="BackgroundImageFix" result="effect1_dropShadow_205_22"/>
<feBlend mode="normal" in="SourceGraphic" in2="effect1_dropShadow_205_22" result="shape"/>
</filter>
</defs>
</svg>
