<svg width="0" height="0" class="hidden">
  <symbol enable-background="new 0 0 128 128" id="advant_frame" version="1.1" xml:space="preserve" xmlns="http://www.w3.org/2000/svg" xmlns:xlink="http://www.w3.org/1999/xlink" viewBox="0 0 128 128">
    <g>
      <path d="M17,63.8V126h94V63.8l8,8l7.8-7.8L111,48.2V12H92v17.2l-28-28L1.2,64L9,71.8L17,63.8z M107,60v62H21V60   h-0.2L64,16.8L107.2,60H107z M64,6.8l32,32V16h11v33.8L121.2,64l-2.2,2.2l-55-55l-55,55L6.8,64L64,6.8z" fill="#3EBBC4"></path>
      <path d="M56.8,55v5.3c-1,0.3-2,0.8-3,1.3L50,57.8L39.8,68l3.8,3.8c-0.5,1-0.9,2-1.3,3H37v14.4h5.3   c0.3,1,0.8,2,1.3,3L39.8,96L50,106.2l3.8-3.8c1,0.5,2,0.9,3,1.3v5.3h14.4v-5.3c1-0.3,2-0.8,3-1.3l3.8,3.8L88.2,96l-3.8-3.8   c0.5-1,0.9-2,1.3-3H91V74.8h-5.3c-0.3-1-0.8-2-1.3-3l3.8-3.8L78,57.8l-3.8,3.8c-1-0.5-2-0.9-3-1.3V55H56.8z M73.6,65.8l1.3,0.8   l3.1-3.1l4.5,4.5l-3.1,3.1l0.8,1.3c0.9,1.5,1.6,3.2,2,4.9l0.4,1.5H87v6.4h-4.4l-0.4,1.5c-0.4,1.7-1.1,3.3-2,4.9l-0.8,1.3l3.1,3.1   l-4.5,4.5l-3.1-3.1l-1.3,0.8c-1.5,0.9-3.2,1.6-4.9,2l-1.5,0.4v4.4h-6.4v-4.4l-1.5-0.4c-1.7-0.4-3.3-1.1-4.9-2l-1.3-0.8l-3.1,3.1   L45.5,96l3.1-3.1l-0.8-1.3c-0.9-1.5-1.6-3.2-2-4.9l-0.4-1.5H41v-6.4h4.4l0.4-1.5c0.4-1.7,1.1-3.3,2-4.9l0.8-1.3L45.5,68l4.5-4.5   l3.1,3.1l1.3-0.8c1.5-0.9,3.2-1.6,4.9-2l1.5-0.4V59h6.4v4.4l1.5,0.4C70.4,64.2,72,64.9,73.6,65.8z" fill="#3EBBC4"></path>
      <path d="M51.6,82c0,6.8,5.6,12.4,12.4,12.4S76.4,88.8,76.4,82S70.8,69.6,64,69.6S51.6,75.2,51.6,82z M72.4,82   c0,4.6-3.8,8.4-8.4,8.4s-8.4-3.8-8.4-8.4s3.8-8.4,8.4-8.4S72.4,77.4,72.4,82z" fill="#3EBBC4"></path>
    </g>
  </symbol>
  <symbol id="advant_materials" xmlns="http://www.w3.org/2000/svg" viewBox="0 0 272 272">
    <defs></defs>
    <title></title>
    <path d="M231.06,80.63A40.24,40.24,0,0,0,232,72a40,40,0,0,0-57.78-35.83,40,40,0,0,0-76.43,0A40,40,0,0,0,40,72a40.24,40.24,0,0,0,.94,8.63A40,40,0,0,0,48,160l.81,0a40,40,0,0,0,63.94,23.45l-4.62,78.29L108,264h56l-4.45-75.53a40,40,0,0,0,55.81-29.41,40,40,0,1,0,15.7-78.42Z"></path>
  </symbol>
  <symbol xmlns="http://www.w3.org/2000/svg" viewBox="0 0 32 32" id="advant_mounting">
    <title></title>
    <g id="fix">
      <path d="M26.5,32A5.51,5.51,0,0,1,21,26.5c0-.27,0-.57,0-.79L7.74,12.48A6,6,0,0,1,.48,5.12a1,1,0,0,1,.7-.71,1,1,0,0,1,1,.26L4,6.55A1.48,1.48,0,0,0,5.27,7a1.51,1.51,0,0,0,1.11-.73A1.62,1.62,0,0,0,6,4.32L4.26,2.55a1,1,0,0,1-.26-1A1,1,0,0,1,4.71.87,6,6,0,0,1,12,8.29L25,21.22A5.66,5.66,0,0,1,26.5,21a5.5,5.5,0,0,1,0,11ZM8,10.35a1,1,0,0,1,.71.29l13.9,13.9a1,1,0,0,1,.28.59A11.39,11.39,0,0,1,23,26.5,3.5,3.5,0,1,0,26.5,23a3.41,3.41,0,0,0-1.39.3A1,1,0,0,1,24,23.09L10.17,9.27A1,1,0,0,1,10,8.18,4,4,0,0,0,7.36,2.82l.09.08a3.62,3.62,0,0,1,.63,4.39A3.5,3.5,0,0,1,2.61,8l-.2-.21A4,4,0,0,0,4.07,10a4,4,0,0,0,3.6.39A1,1,0,0,1,8,10.35Z"></path>
      <path d="M27.37,29H25.63a1,1,0,0,1-.87-.5L23.9,27a1,1,0,0,1,0-1l.86-1.5a1,1,0,0,1,.87-.5h1.74a1,1,0,0,1,.87.5L29.1,26a1,1,0,0,1,0,1l-.86,1.5A1,1,0,0,1,27.37,29Zm-1.16-2h.58l.29-.5-.29-.5h-.58l-.29.5Z"></path>
      <path d="M21.9,15.13a1,1,0,0,1-.71-.29l-3.53-3.53a1,1,0,0,1,0-1.42l8-8a3.47,3.47,0,0,1,2.47-1h0a3.45,3.45,0,0,1,2.48,1,3.41,3.41,0,0,1,1,2.46,3.52,3.52,0,0,1-1,2.48l-8,8A1,1,0,0,1,21.9,15.13ZM19.78,10.6l2.12,2.12,7.25-7.26a1.49,1.49,0,0,0-1.06-2.55h0A1.47,1.47,0,0,0,27,3.34Z"></path>
      <path d="M12.65,23.35a1,1,0,0,1-.71-.29L9.28,20.39a1,1,0,0,1,0-1.42l3.18-3.18a1,1,0,0,1,1.42,0l2.67,2.66a1,1,0,0,1,.29.71,1.06,1.06,0,0,1-.29.72l-3.19,3.18A1,1,0,0,1,12.65,23.35ZM11.4,19.68l1.25,1.26,1.78-1.77-1.26-1.26Z"></path>
      <path d="M18.66,17.34h0a1,1,0,0,1-.71-.29l-2.66-2.67a1,1,0,0,1,0-1.42l2.18-2.18a1,1,0,0,1,1.42,0l2.67,2.66a1,1,0,0,1,.29.71,1.05,1.05,0,0,1-.29.71l-2.19,2.19A1,1,0,0,1,18.66,17.34Zm-1.25-3.67,1.25,1.25.77-.77L18.18,12.9Z"></path>
      <path d="M3,32a1,1,0,0,1-.71-.29l-2-2a1,1,0,0,1-.12-1.26l4-5.95a.87.87,0,0,1,.34-.32L9,19.65a1,1,0,0,1,1.2.16l2,2a1,1,0,0,1,.16,1.2L9.81,27.55a.87.87,0,0,1-.32.34L3.54,31.84A.94.94,0,0,1,3,32Zm-.71-3.13.84.84,5.07-3.36,2.05-3.67-.93-.93-3.67,2Z"></path>
    </g>
  </symbol>
  <symbol id="advant_painting" version="1.1" xmlns="http://www.w3.org/2000/svg" xmlnsCc="http://creativecommons.org/ns#" xmlnsDc="http://purl.org/dc/elements/1.1/" xmlnsInkscape="http://www.inkscape.org/namespaces/inkscape" xmlnsRdf="http://www.w3.org/1999/02/22-rdf-syntax-ns#" xmlnsSodipodi="http://sodipodi.sourceforge.net/DTD/sodipodi-0.dtd" xmlnsSvg="http://www.w3.org/2000/svg" viewBox="0 0 48 48">
    <defs id="defs6487"></defs>
    <g id="layer1" transform="translate(0,-1004.3622)"><text id="text4366" x="12" xml:space="preserve" y="1036.3622">
        <tspan id="tspan4368" x="12" y="1036.3622"></tspan>
      </text>
      <g id="text4981" transform="scale(1.1477838,0.87124422)"></g>
      <g id="g6091">
        <g id="g5964" transform="translate(640.02794,259.17156)">
          <path d="m -616.02794,745.19064 c -13.25187,0 -24,10.74825 -24,24 0,13.2519 10.74813,24 24,24 13.25187,0 24,-10.7481 24,-24 0,-13.25175 -10.74813,-24 -24,-24 z m 0,1.5 c 12.42359,0 22.5,10.07655 22.5,22.5 0,12.4236 -10.07641,22.5 -22.5,22.5 -12.42359,0 -22.5,-10.0764 -22.5,-22.5 0,-12.42345 10.07641,-22.5 22.5,-22.5 z" id="path5827"></path>
          <path d="m -616.02794,749.44059 c -10.90519,0 -19.75,8.84505 -19.75,19.75005 0,10.90515 8.84481,19.75005 19.75,19.75005 10.90519,0 19.75,-8.8449 19.75,-19.75005 0,-10.905 -8.84481,-19.75005 -19.75,-19.75005 z" id="path5829"></path>
          <path d="m -616.02794,749.44059 c -10.90519,0 -19.75,8.84505 -19.75,19.75005 0,5.4579 2.21752,10.39755 5.798,13.9728 l 27.92477,-27.92475 c -3.57517,-3.5805 -8.51487,-5.7981 -13.97277,-5.7981 z" id="path5831"></path>
        </g>
        <g id="g4850" transform="translate(-1.7005766,1.5975538)">
          <path d="m 34.898438,9.0019531 c -1.051162,0 -2.101354,0.3981657 -2.900391,1.1972659 -1.021359,1.0237 -1.329082,2.499865 -0.984375,3.884765 l -5.298828,5.300782 c -0.945627,0.9455 -2.444736,0.945 -3.388672,0 L 20.03125,17.087891 c -0.200225,-0.199783 -0.524384,-0.199783 -0.724609,0 L 9.1503906,27.242188 c -0.2010854,0.200448 -0.2010854,0.526114 0,0.726562 L 20.03125,38.849609 c 0.200225,0.199783 0.524384,0.199783 0.724609,0 l 10.154297,-10.15625 c 0.199783,-0.200225 0.199783,-0.524384 0,-0.724609 l -2.296875,-2.296875 c -0.943847,-0.9439 -0.943827,-2.442972 0.002,-3.388672 l 5.300782,-5.298828 c 1.384993,0.3449 2.860903,0.03928 3.884765,-0.982422 l 0.002,0 c 1.597679,-1.5977 1.596856,-4.202581 0,-5.800781 -0.04865,-0.04807 -0.106426,-0.08592 -0.169922,-0.111328 l -0.0059,0 C 36.849852,9.3903438 35.88195,9.0078125 34.898438,9.0078125 Z m 0,1.0136719 0,0.002 c 0.786481,0 1.574694,0.301297 2.177734,0.904297 l 0.002,0 c 1.202636,1.2063 1.203116,3.142756 -0.002,4.347656 -0.841374,0.8394 -2.087578,1.119903 -3.207031,0.720703 -0.186797,-0.06645 -0.395166,-0.0193 -0.535157,0.121094 l -5.443359,5.44336 c -1.33454,1.334599 -1.335033,3.50459 -0.002,4.83789 l 1.933594,1.933594 -1.453125,1.453125 -10.154297,-10.15625 1.453125,-1.449219 1.933593,1.931641 c 1.333135,1.3348 3.503308,1.3345 4.837891,0 l 5.443359,-5.445313 c 0.140398,-0.139991 0.187547,-0.348359 0.121094,-0.535156 -0.399168,-1.1195 -0.118714,-2.363678 0.720703,-3.205078 0.602856,-0.6021 1.387962,-0.904297 2.173829,-0.904297 z m 0,1.037109 c -0.526117,0 -1.050773,0.199257 -1.449219,0.597657 -0.796886,0.797 -0.796886,2.10359 0,2.90039 0.796892,0.797 2.103504,0.797 2.90039,0 0.796893,-0.7968 0.796893,-2.10339 0,-2.90039 -0.398442,-0.3984 -0.925055,-0.597657 -1.451171,-0.597657 z m 0,1.017578 c 0.261446,0 0.524121,0.102788 0.726562,0.304688 0.404892,0.4048 0.404892,1.046272 0,1.451172 -0.404884,0.4049 -1.046281,0.4049 -1.451172,0 -0.404884,-0.4049 -0.404884,-1.046372 0,-1.451172 0.202446,-0.2024 0.463162,-0.304688 0.72461,-0.304688 z m -17.408204,8.28125 10.154297,10.154297 -7.25,7.253907 -0.726562,-0.726563 5.154297,-5.150391 c 0.336249,-0.326206 0.09521,-0.895364 -0.373047,-0.880859 -0.133704,0.004 -0.260558,0.06006 -0.353516,0.15625 l -5.152344,5.150391 -1.451171,-1.451172 1.667968,-1.664063 c 0.336249,-0.326206 0.09521,-0.895364 -0.373047,-0.880859 -0.133704,0.004 -0.260557,0.06007 -0.353515,0.15625 l -1.666016,1.664062 -2.904297,-2.904296 c 0.0216,-0.01659 0.04185,-0.03488 0.06055,-0.05469 l 5.40625,-5.404297 c 0.337056,-0.326866 0.09423,-0.897247 -0.375,-0.880859 -0.133021,0.0045 -0.259084,0.06053 -0.351562,0.15625 l -5.404297,5.404297 c -0.01989,0.01932 -0.03818,0.04022 -0.05469,0.0625 l -0.736328,-0.738281 c 0.03111,-0.02026 0.05992,-0.04383 0.08594,-0.07031 l 3.21875,-3.21875 c 0.335459,-0.325546 0.09619,-0.893497 -0.371094,-0.880859 -0.133704,0.004 -0.260558,0.06006 -0.353516,0.15625 l -3.21875,3.21875 c -0.02648,0.02602 -0.05005,0.05483 -0.07031,0.08594 L 10.238286,27.60352 Z" id="rect5714" transform="translate(0,1004.3622)"></path>
        </g>
      </g>
    </g>
  </symbol>
  <symbol xmlns="http://www.w3.org/2000/svg" viewBox="0 0 30 30" id="advant_post">
    <path d="M15.48 12c-.13.004-.255.058-.347.152l-2.638 2.63-1.625-1.62c-.455-.474-1.19.258-.715.712l1.983 1.978c.197.197.517.197.715 0l2.995-2.987c.33-.32.087-.865-.367-.865zM.5 16h3c.277 0 .5.223.5.5s-.223.5-.5.5h-3c-.277 0-.5-.223-.5-.5s.223-.5.5-.5zm0-4h3c.277 0 .5.223.5.5s-.223.5-.5.5h-3c-.277 0-.5-.223-.5-.5s.223-.5.5-.5zm0-4h3c.277 0 .5.223.5.5s-.223.5-.5.5h-3C.223 9 0 8.777 0 8.5S.223 8 .5 8zm24 11c-1.375 0-2.5 1.125-2.5 2.5s1.125 2.5 2.5 2.5 2.5-1.125 2.5-2.5-1.125-2.5-2.5-2.5zm0 1c.834 0 1.5.666 1.5 1.5s-.666 1.5-1.5 1.5-1.5-.666-1.5-1.5.666-1.5 1.5-1.5zm-13-1C10.125 19 9 20.125 9 21.5s1.125 2.5 2.5 2.5 2.5-1.125 2.5-2.5-1.125-2.5-2.5-2.5zm0 1c.834 0 1.5.666 1.5 1.5s-.666 1.5-1.5 1.5-1.5-.666-1.5-1.5.666-1.5 1.5-1.5zm-5-14C5.678 6 5 6.678 5 7.5v11c0 .822.678 1.5 1.5 1.5h2c.676.01.676-1.01 0-1h-2c-.286 0-.5-.214-.5-.5v-11c0-.286.214-.5.5-.5h13c.286 0 .5.214.5.5V19h-5.5c-.66 0-.648 1.01 0 1h7c.66 0 .654-1 0-1H21v-9h4.227L29 15.896V18.5c0 .286-.214.5-.5.5h-1c-.654 0-.654 1 0 1h1c.822 0 1.5-.678 1.5-1.5v-2.75c0-.095-.027-.19-.078-.27l-4-6.25c-.092-.143-.25-.23-.422-.23H21V7.5c0-.822-.678-1.5-1.5-1.5z"></path>
  </symbol>
  <symbol enable-background="new 0 0 128 128" id="advant_project" version="1.1" xml:space="preserve" xmlns="http://www.w3.org/2000/svg" xmlns:xlink="http://www.w3.org/1999/xlink" viewBox="0 0 128 128">
    <g>
      <path d="M6,104H2c0,9.4,7.6,17,17,17h107V17H21V2h-2C9.6,2,2,9.6,2,19v85L6,104c0-7.2,5.8-13,13-13h2V21h101v96H19   C11.8,117,6,111.2,6,104z M17,87.1c-4.4,0.5-8.3,2.7-11,5.9V19c0-6.5,4.8-11.9,11-12.8V87.1z" fill="#3EBBC4"></path>
      <path d="M103,29H91v67.5l6,12l6-12V29z M99,33v11h-4V33H99z M97,99.5l-2-4V48h4v47.5L97,99.5z" fill="#3EBBC4"></path>
      <path d="M42,77v4h8L45,108.7l3.9,0.7L54,81H66l5.1,28.4l3.9-0.7L70,81h8v-4h-8.7L67,63.8c3.1-2.2,5-5.9,5-9.8   c0-5.9-4.3-10.9-10-11.8V29h-4v13.2c-5.7,1-10,5.9-10,11.8c0,3.9,1.9,7.5,5,9.8L50.7,77H42z M56.2,61c-2.6-1.4-4.2-4.1-4.2-7   c0-4.4,3.6-8,8-8s8,3.6,8,8c0,2.9-1.6,5.6-4.2,7l-1.3,0.7L65.3,77H54.7l2.7-15.3L56.2,61z" fill="#3EBBC4"></path>
    </g>
  </symbol>
  <symbol xmlns="http://www.w3.org/2000/svg" viewBox="0 0 1920 1920" id="servises-ladder">
    <g id="STROKES">
      <path d="M1703.1 733h-297.3v194h-297.2v194"></path>
      <path d="M1108.6 1121H811.4v194H514.2v194H216.9v194.1"></path>
      <path d="M349 1509v-359"></path>
      <path d="M1545 733.3V213.2L349 1150l-132.1 103.4"></path>
      <path d="M1545 213.2h158.1"></path>
    </g>
  </symbol>
  <symbol xmlns="http://www.w3.org/2000/svg" viewBox="0 0 10 8" id="switch_image_left">
    <path d="M9 5C9.5523 5 10 4.5523 10 4C10 3.4477 9.5523 3 9 3H3.41421L4.70711 1.7071C5.09763 1.3166 5.09763 0.683398 4.70711 0.292897C4.31658 -0.0976325 3.68342 -0.0976325 3.29289 0.292897L0.29289 3.2929C0.10536 3.4804 0 3.7348 0 4C0 4.2652 0.10536 4.5196 0.29289 4.7071L3.29289 7.7071C3.68342 8.0976 4.31658 8.0976 4.70711 7.7071C5.09763 7.3166 5.09763 6.6834 4.70711 6.2929L3.41421 5H9Z"></path>
  </symbol>
  <symbol xmlns="http://www.w3.org/2000/svg" viewBox="0 0 10 8" id="switch_image_right">
    <path d="M1 3C0.44772 3 0 3.44771 0 4C0 4.55228 0.44772 5 1 5H6.5858L5.2929 6.29289C4.9024 6.68342 4.9024 7.31658 5.2929 7.70711C5.6834 8.0976 6.3166 8.0976 6.7071 7.70711L9.7071 4.70711C9.8946 4.51957 10 4.26522 10 4C10 3.73478 9.8946 3.48043 9.7071 3.29289L6.7071 0.29289C6.3166 -0.09763 5.6834 -0.09763 5.2929 0.29289C4.9024 0.68342 4.9024 1.31658 5.2929 1.70711L6.5858 3H1Z"></path>
  </symbol>
</svg>