<svg width="10" height="8" viewBox="0 0 10 8" fill="none" xmlns="http://www.w3.org/2000/svg">
<path d="M9 5C9.5523 5 10 4.5523 10 4C10 3.4477 9.5523 3 9 3H3.41421L4.70711 1.7071C5.09763 1.3166 5.09763 0.683398 4.70711 0.292897C4.31658 -0.0976325 3.68342 -0.0976325 3.29289 0.292897L0.29289 3.2929C0.10536 3.4804 0 3.7348 0 4C0 4.2652 0.10536 4.5196 0.29289 4.7071L3.29289 7.7071C3.68342 8.0976 4.31658 8.0976 4.70711 7.7071C5.09763 7.3166 5.09763 6.6834 4.70711 6.2929L3.41421 5H9Z" fill="#4A5568"/>
</svg>
